/* XPM */
static char *result[] = {
/* columns rows colors chars-per-pixel */
"60 60 224 2 ",
"   c #0E0005",
".  c #110007",
"X  c #14020A",
"o  c #18060E",
"O  c #17080E",
"+  c #18080F",
"@  c #160610",
"#  c #190712",
"$  c #170810",
"%  c #1B0B13",
"&  c #1C0E1A",
"*  c #1F1116",
"=  c #1E111C",
"-  c #200E15",
";  c #211116",
":  c #24141B",
">  c #27181E",
",  c #2A191F",
"<  c #1F1421",
"1  c #211523",
"2  c #241925",
"3  c #2C1C23",
"4  c #251629",
"5  c #261C2A",
"6  c #2A1D2B",
"7  c #301F25",
"8  c #301F28",
"9  c #291F33",
"0  c #2E2126",
"q  c #27232C",
"w  c #2C232D",
"e  c #312126",
"r  c #32232A",
"t  c #38272C",
"y  c #36282D",
"u  c #3B2A2F",
"i  c #2B2432",
"p  c #2B2635",
"a  c #2C2639",
"s  c #2F2B3C",
"d  c #302531",
"f  c #342B34",
"g  c #3D2C32",
"h  c #322D3C",
"j  c #37313A",
"k  c #3C3138",
"l  c #402C33",
"z  c #48383B",
"x  c #322E40",
"c  c #353344",
"v  c #3A3545",
"b  c #3E3A45",
"n  c #36364A",
"m  c #3A3649",
"M  c #3B3B4D",
"N  c #3E3E51",
"B  c #423B44",
"V  c #463E4A",
"C  c #413E51",
"Z  c #3E4254",
"A  c #3F4659",
"S  c #44434C",
"D  c #4C4349",
"F  c #524546",
"G  c #56494A",
"H  c #57494B",
"J  c #434454",
"K  c #4D4A54",
"L  c #42455A",
"P  c #454A5D",
"I  c #4A4D5D",
"U  c #564D53",
"Y  c #4F505F",
"T  c #53545D",
"R  c #595559",
"E  c #645857",
"W  c #6A5C5B",
"Q  c #6B615E",
"!  c #464C61",
"~  c #454A64",
"^  c #494E61",
"/  c #4B5264",
"(  c #4D546B",
")  c #4E596C",
"_  c #545562",
"`  c #585763",
"'  c #555963",
"]  c #5A5C65",
"[  c #51576C",
"{  c #535B6C",
"}  c #5A5E6A",
"|  c #4E5B72",
" . c #535E73",
".. c #565E78",
"X. c #685E63",
"o. c #57606E",
"O. c #5C626C",
"+. c #4D6073",
"@. c #546074",
"#. c #5B6373",
"$. c #57657D",
"%. c #5A6579",
"&. c #5E697D",
"*. c #6C6362",
"=. c #666469",
"-. c #62646C",
";. c #736968",
":. c #7A706F",
">. c #626772",
",. c #646A74",
"<. c #6A6C75",
"1. c #636C7B",
"2. c #66727C",
"3. c #6A737D",
"4. c #7D7473",
"5. c #79777B",
"6. c #827B79",
"7. c #8A827E",
"8. c #5F6D81",
"9. c #616E81",
"0. c #647285",
"q. c #6C7582",
"w. c #6E7983",
"e. c #667789",
"r. c #6B7A8B",
"t. c #737C85",
"y. c #737E89",
"u. c #7A7E88",
"i. c #6C7E90",
"p. c #827E89",
"a. c #75828C",
"s. c #7C858A",
"d. c #79848C",
"f. c #6E8195",
"g. c #748493",
"h. c #768695",
"j. c #7C8B95",
"k. c #768A9A",
"l. c #7B8D9B",
"z. c #7F919C",
"x. c #7E91A1",
"c. c #8A8788",
"v. c #928B86",
"b. c #948B88",
"n. c #958E8A",
"m. c #97918C",
"M. c #9A938D",
"N. c #848B93",
"B. c #808F9A",
"V. c #8A9297",
"C. c #83939C",
"Z. c #8B959B",
"A. c #9C9591",
"S. c #9E9A94",
"D. c #939799",
"F. c #A29D95",
"G. c #A39E98",
"H. c #A5A29C",
"J. c #AAA49C",
"K. c #8496A2",
"L. c #8A97A2",
"P. c #8599A5",
"I. c #8A9CA4",
"U. c #869BA9",
"Y. c #899EAA",
"T. c #939DA5",
"R. c #87A1AD",
"E. c #8DA2AD",
"W. c #9BA3A5",
"Q. c #92A4AD",
"!. c #98A7AC",
"~. c #8FA7B0",
"^. c #91A6B1",
"/. c #95ABB4",
"(. c #99AEB6",
"). c #97AEB8",
"_. c #99AFB8",
"`. c #9CB0B7",
"'. c #97B0B8",
"]. c #9DB2B9",
"[. c #AEACA4",
"{. c #A5ABAB",
"}. c #B1ADA5",
"|. c #B4B1A7",
" X c #B5B2AB",
".X c #B9B5AD",
"XX c #BCBAAE",
"oX c #A5ADB1",
"OX c #AAB3B4",
"+X c #A2B5BB",
"@X c #A5B9BD",
"#X c #AABABD",
"$X c #B6BAB6",
"%X c #BDBCB3",
"&X c #B6BCBA",
"*X c #C0B6AC",
"=X c #C1BEB5",
"-X c #C3BFBB",
";X c #C4C2B6",
":X c #C3C4BB",
">X c #C5C9BE",
",X c #CAC9BD",
"<X c #A5B9C1",
"1X c #ACBDC1",
"2X c #B0BFC4",
"3X c #AEC0C2",
"4X c #B4C4C5",
"5X c #B8C6C6",
"6X c #B6C6C9",
"7X c #B9C8C8",
"8X c #BAC9CA",
"9X c #C4C7C1",
"0X c #C6C9C1",
"qX c #CACCC3",
"wX c #C0C7C8",
"eX c #C2CDCB",
"rX c #C5D1CC",
"tX c #CBD1C9",
"yX c #D2D3C5",
"uX c #D2D5CA",
"iX c #DADBCD",
"pX c #DCE1D6",
"aX c #E7E6DA",
"sX c #F6F6E7",
/* pixels */
"+ - * * * * * * % % % + % + + - - % - % % % O % % % % % ; % % o o o % % % # # - - % % % % % % % % % % % % % % o + o o % ",
"> n.w.3.w.w.w.w.J 1 . . . . : c.` I I = . X . . - c.} _ I % . . X . ;.c.1.h @ ;.N.w.t.w.w.w.w.t.1.6 ;.<.^ / d . X . . o ",
"0 9X_.^././.'.^.{ 2 . X X . 3 0XI.S S & . . . . , :XU.B I % . . X . M.8XY.L & A.8X/.(./.`.`.`.`.1.1 G.#X} J d . . .   O ",
"e :X_.^.I.O.P./.l.2.] % . . 3 0X`.2.o.O.T % X . , :X(.>.O.O.B . X . b.6XE.1.2 A.6X/././.j.#.Q.(.#.& G.4Xa.' ] R &   X O ",
"0 :X(./.P.K C._.].z.' % . . 3 0X`./.'.j.' % .   : ;X+X'.^.3.S . . . b.6XR.( < S.6X/././.a.` E./.&.= H.3X^.'.j.' *     O ",
"e :X`././././././.w.a % 5 1 3 0X`././.2.p $ 2 2 : ;X+X/.E.J 2 : q $ n.6XE. .< A.oX(./.^././././.0.= H.3X^./.1.p $ 0 < $ ",
"e 0X+X'.`./.(.oX].C.@.i ) P 0 qX+X`.`.l.+.i ) / 2 :X#X`./.f.Z S %.5 b.4XE.@.= A.yXW.} { a.'.'./.0.< H.4X`.`.z. .q +.^ % ",
"3 ;XuXtX:XI.oXqX,XD.{ / +.Z 3 ;XyXtXqXZ.( / ) L > XXuX,X>Xt.) ) { 2 b.6X~.@.= v.aX%XA.j :.uXyXuX5.: m.iXqX,XD.) I ) Z % ",
"+ u l l g 3 r g g 3 : : & & o u g g u 3 : 1 = * O t g u u 3 1 : = o n.7X~.%.2 0 g g g % 4 g g g t % e g g g 6 = : = & O ",
", c./ P ! ~ ! P P ^ L # . . > c./ L x ; c.' A p ; c.{ ! I I ^ ^ Z = b.7X~.P.j.a.y.) M < *.X.a X . . 4.<.P P / / / ^ s $ ",
"r 9XE.U.U.U.U.Y.Y.Y.h.;     0 0XE.k.L 1 %XQ.x.&.3 %X).U.R.R.R.Y.&.< b.8X/.).)./.).R.9.4 v.OXL X . X H.#XU.R.R.R.R.l.N $ ",
"8 9X_.K.K./.)./.)./.C.;     0 0X].U.L > %X+XR.a.3 =X<X).).B.^.'.0.2 v.4X/.).~.T D._.e.< v.6X) X . . H.4X/.'.C.B.].P.M $ ",
"7 9X].#.T _././._.w.h # .   0 9X`.P.L > =X].C.o.4 =X<X/.Y.V p.].0.1 v.7X/.^./.3.I./.r.1 v.6Xr.o . X F.4X^./.>.U @Xx.M $ ",
"r 9X/.U.U./.).)./.g.Z : h p 0 0X].U.L : =X+Xh.M > =X+X/.).U.^.^.9.1 b.4X^./././././.f.5 v.6Xg.s a & G.4X^./.E.Y.).U.M % ",
"r qX@X].+X].+X].@XL.$.a  .^ w 0X`.U.A > ;X#X(.[ 1 -X1X+X].+X<XU. .< n.eX+X+X+X+X].+XP.w v.eXI.%.~ 1 G.8X].+X].+X].R.m % ",
"3  X>X:X:X:X:X>X>XV.[ ^ ) N 0 >X`.U.L : J.,X.XH ; }.qX9X9X:X:X-X6.; 6.qX:X;X:X:X>X:Xv.> 6.qX;X%X6.: 7.,X>X;X:X>X0X.XD % ",
"o r 0 e 0 , e e r 3 : : = * 0 >X].P.L + e 0 0 , + 3 t r r t r t e + , e 3 e r r r t 0 % : e e 6 8 + 3 e w 3 3 , , , : @ ",
"3 S.#.@.I , a.j.j.j.1. .{ b 0 >X`.R.L : M.3.#.{ m t.B.j.B.B.z.j.+.= 6.5.~ w.j.z.j.j.o.= :.u.{ { ^ 1 7.u.I _ f . . . . @ ",
"r 0X/.E.a.y I./././.~.~.P.A 0 >X`.R.L > ;X`.Q.E.E.^.'.(.'.`.`.'.&.< n.4XE.^./././.'.0.< v.4XR.R.e.3 F.2X} v w . X . . O ",
"r 0X`./.E.a.Q.^./.K.R !.Y.L 0 >X].P.P : %X+X/././././././././.I.S % n.5X^.^.E.` D.].0.< v.4X/.).0.4 F.4Xj.,.,.O.% . . o ",
"r 0X_././././././.K.] !.E.Z 0 >X].P.P : %X@X^./.!./././././.(./.0.< n.5XQ./.E.-.I.].0.< b.6X~./.0.2 G.3X/.'.j.` % . . O ",
"r 9XoX/././.^./.^./././.R.Z 0 |.C.U.! >  XP.Q./.^./././.(././.(.r.2 n.8XE.Q.^././.U.+.< v.W.Q.^.e.5 G.4X^.'.,.p % 5 = % ",
"e uXrX<X].(./.'././.'.'.E.Z 0 yX&Xz.2., =X&Xj.(.'./.(.(.(.(._._.3.= m.uXs.`.+X+X+XQ.{ < b.iXW.g.z.w G.8X].@XC.@.s +.P $ ",
", H.%X XH.t.t.w.a.w.a.5.3.k > J.=XJ.R ; m.XX[.D.5.a.a.t.a.t.a.t.T + ;.=.v.}.}.}.[.[.4.* ;.;X.X[.:.; 6. X[.[.s.^ P / n % ",
"+ r r 3 : % % % # # 1 r 3 3 3 0 r r 0 + e 3 , , = : : : : : & = o X o X o - % 3 3 1 1 - ; 1 3 4 2 # 3 w r w : O o o X o ",
"0  XQ.1.N 4 1 1 4 $ E $XK.P.Z.C.C.P.j.w S.1.~ ~ / / / ( ( ) [ ^ % . . X . . . 7.u.^ ( ( ( ( ( ) ( 2 v.{.P.I.K . . X X o ",
"0 0X+Xr.~ 9 4 4 4 $ Q rX^./././.'.'.E.y n...L ~ P ! P P ~ ~ ^ C % . X X X X X p.q.L ~ P ~ ! ! ~ L 1 G.4X/.'.R . X . . % ",
"e 0X].P.u.q.} C A q *.rX^./.Q.j.!./.E.f c.s.q.q.' S s.q.w.q.q.c 1 *.M n m b & 4.N.1.v u.q.q.q.w.P % F.4X/./.j.O.% X . # ",
"8 9X(./.)._.Y.l.i.s *.rX^./.C.D W.`.E.y  X2X/._.B.5.1XQ.u.oX/.~ d $XB.l.l. .1 M.2X^.1.oX]._._.`.9.< F.4X/./.j.O.& . X o ",
"r 9XoX/.).)./.(.l.a *.rX^./.^.I././.E.y |.1X/./././._.L.D T./.~ r 9X]._./.%.1 F.8X).).!./.)./._.&.: F.4X/./.1.q @ . . o ",
"6 9X_././.(.(._.l.p Q OXW./././././.E.f |.1X/./.(./.(./.Q._.^.^ r 9X^.K.U. .< A.2X/./.)./././.(.&.1 F.4X/./.x.@.& .   O ",
"8 9XoX/././././.z.p ;.aX&Xa././././.a.0 |.1X/./.(.(.(.(./._.E./ d iXwXK.K.( : F.5X/.^.w.W._._._.&.< H.4X/./.z.+.& .   O ",
"8 9X(./././.!.(.a.2 E ,X=XG.N.d.s.d.,.> .X1X/./._.(.(.(./._.Q.J 3 .X,X.X}.] & A.6X/.E.D D.]._.^.%.1 F.4X/.).1.6 o @ X @ ",
"r qX+XL.Q././.'.j.i l =.b b m m m a % - .X#X/./.(./././././.Q.Y , ;.S b , # X F.4X/./.E.^././.f.~ 1 G.eX).).i.Z 1 J n % ",
"w iXaXD.#X/.^./.j.5 R T.( ( ( ( [ M . % %X#X/.^./.Q.!./././.Q.I r oX..[ - X X F.pXeXeXeXeXeXrX#X=.> J.sXrXeXT. .Z | Z % ",
"% H W E R b z B j + 7 z 4 9 6 6 6 : . o D V B z z v B B B V B r - D i 4 o . . z X.W W W E W W W H : B W X.W V 6 q 5 < @ ",
": ;.` _ ` ` ] T c c c c c 9 : W c x a & *.] ' ' ' } ] f : X . X . . G K c c c c x h a & F =.T ` b * H K s s Z J N m 5 o ",
"r 9X].)./.'.`./.k.k.k.k.i.L r 9Xx.f.9.3 -X<X/.)._.]._.^ 9 # . . . . n.OXk.k.k.k.k.k.g.w v.4X(._.f.0 S.(.k.h.U.~.U.k.M O ",
"r 9X].^.^./././.(./.L._.Y.L 6 0X].~.1.3 %X+X^././././.1.I M 6 . X . m.7X_./.(.(././.q.4 b.6X^./.E.j S.4X/./.E.Z.].P.M $ ",
"e 9X].^./././././.C.B {.Y.J e 0X].U.N : %X@X/././.(.(./.^.B.T . . . m.8X/././.(./.y.N : m.6X^.^.E.j S.3X~.'.#.G @XK.Z $ ",
"8 =XB././.'./././.Q.B.^.l.a 7 >X].U.A > %X+X/././././.(.Y.C 1 # - o n.T.I././././.E.C.j *.Z.^./.Q.j G.4X~./.C.z.'.z.p % ",
"8 ,XoXd.0.r.E.'./././.E.e.L e 0X].U.Z : %X@Xk.Q.(./.(./.^.9.c m ( 4 n.qXN.q.9.B././.'.k 2 / E./.Q.j S.3X~.^./.'.^.~.' + ",
"7 yXpXD.3.k $XtXtXrXrXtX$XK e 0X+XU.A : ;XpXoX X<.L.Q.^.T.8.^ ( ..4 b.sXG.p.v >././.j.w Y L.Y.Q.E.j A.pXrXtXrXrXrX&XU $ ",
"- z F F z - z F F F F F F u 3 9X].U.A % z G H V & r j j f 6 6 4 2 # r H H H 3 5.@X^.@.= > f f f f % f G F F F F F F r O ",
": 6.-.-.O.>.O.O.' 2         3 0X].^.h.' b M m q - 4.<.>.-._ M N c & U R n c & M.6X^.%.< H U x c h * E ' Z Z 0         O ",
"8 ,X_./.'.'.`.w./ q   .     3 qX+X/.'.E.k.k.g.P 3 :X+X/._.U.k.k.$.1 b.OXh.%.2 M.4X/.1.< b.W.| | ) < S.+XO.I f . .   . O ",
"7 9X_./.~././.w.S S b O     3 qX`./.'.C.a.'.E.I > -X+X/./.(._./.9.1 n.6X^.8.1 M.4X/.1.1 b.2Xk.k.' * H.4X3.S S b % . X O ",
"8 :X_././././././.P.1.&     3 0X+X/._.3.] +XE./ 2 -X+XY././._./.0.1 m.6X~.&.1 M.4X/.#.< b.6X/.).&.* S.3X/./.z.,.=     O ",
"8 9X`.^.^./.^././.3.p $ = = 0 0X+X/.'./.^./.E./ 3 ;XY.@.Q././.C. .4 b.5XQ.%.< A.4Xz.J & v.6X/./.9.1 G.4XQ./.&.w % 2 = O ",
"r 0X+X`.`.'.`.].].z.@.i ( ! 0 yX7X+X].].`.+X/./ , :XOXQ.(.].].W.>.1 m.7XQ.%.2 S.8X`.L.f c.4X/./.1.1 G.7X`.`.z.| i | P * ",
"3 .X,X:X$XZ.{.:X:XV.( P ) Z , XXyX>X>X:X;X:XXXH : }.,X:X:X:X>X,X6.- n.6XQ.{ = 7.yX>Xn.: b.4X/._.&.< v.,X;X:XZ.) / ) A $ ",
"o r r r e 2 0 e 0 : 2 = & O O t r r r u y y y 3 o y y y r e 3 3 3 X n.6XE.C & ; 3 3 2 o n.7X/./.T @ 3 y 0 e , % & % % o ",
", D.( ( ) ) ) ^ j y c.n & . > H.{ P / t.j.j.a.M : S.1.[ [ & . . . . n.7XU.a.j . . . . . b.7X/./.&.2 7.t./ [ f . . X X o ",
"e :XE.U.Y.U.U.x.Z k $X#.=   0 >XQ.P.P.E.^./.U.P 2 :XY.B J & . . . . n.7X2.S w . . X X . n.4X/./.e.2 S.#Xo.b i . X . . @ ",
"e >X].).L.K C.Q.Z l ,XC.2 . 3 ,X]./.'.a.=.+XU.P , ;X`.3.-.,.V . X . n.7Xz.O.>.,.w . .   m.4X^./.e.2 S.4Xd.O.>.O.% .   o ",
"0 >X'./.I.] L.Y.J k ,XE.w . 3 0X`././.d.>.].R.{ 2 ;X+X/.^.1.b   . . n.7X/.'.I.O.6   . . n.4XQ./.0.2 S.3X/.'.d.I & .   O ",
"e >X'././././.I.A l qXR.P q 0 0X+X^././././.~.1.0 ;X]./.E.^ 5 4 h % b.4X/./.C.Y 2 w v = v.T.W.E.i.5 S.4X/./.1.h & s q $ ",
"e yX8X+X@X@X@X(.Z u iXOXh.L 3 qX4X@X@X@X@X@X`.' 2 :X4X@X+Xg.! N $.5 M.rX@X#X+XP.I { r.w b.iX!.B.Z.w H.8X+X@XC.@.c  .M % ",
", }.;X=X%XXXXX|.H r *X;X}.U > J.:X=X=X%X=X=X.XU ; J.;X%XXX<.~ I I 1 :.;X=XXXH.q.<.#.} 2 :.yX%X.X7.: 7.;XXX=XN./ ) / i O ",
"X ; ; : : : ; ; - O ; : ; ; O - ; ; * * * ; ; * . ; : ; : % % + % X % ; ; ; - % $ % % . % ; ; : ; o % : : : - + + O O o "
};
