/* XPM */
static char *pngegg__2___1_1704193695[] = {
/* columns rows colors chars-per-pixel */
"60 60 52 1 ",
"  c None",
". c #1D170C",
"X c #1F190E",
"o c #231B0F",
"O c #221D13",
"+ c #262117",
"@ c #282116",
"# c #27241B",
"$ c #29261D",
"% c #2C281F",
"& c #2D2A22",
"* c #312E25",
"= c #343027",
"- c #35332A",
"; c #39362C",
": c #3C382E",
"> c #3E3B32",
", c #403A2F",
"< c #413E34",
"1 c #444137",
"2 c #464239",
"3 c #4A463C",
"4 c #4D493E",
"5 c #4F4B40",
"6 c #524D42",
"7 c #565145",
"8 c #5B5547",
"9 c #5B5649",
"0 c #5E594B",
"q c #625C4D",
"w c #695F4D",
"e c #635E51",
"r c #6A604E",
"t c #666153",
"y c #6A6456",
"u c #6D6658",
"i c #6F685A",
"p c #736C5D",
"a c #766F60",
"s c #777061",
"d c #7B7464",
"f c #7F7867",
"g c #7F7868",
"h c #847D6C",
"j c #887F6E",
"k c #88806F",
"l c #8C8472",
"z c #908775",
"x c #918976",
"c c #958D7A",
"v c #988F7C",
"b c #9A917E",
/* pixels */
"                     bbb   bbcvcbx                          ",
"                   vcvvbgjvvzllxvks                         ",
"                 xxljkljejlkhklxljsuullllvb                 ",
"                hghhhhhy6fjjkjkjgdp9uljjjlccx               ",
"            bbbvhauasdp5<qpsdgggsae5ughjjklhip              ",
"           lcbcljhe7ty7>&;1357eyy09>yadhhhgse9              ",
"           jlljjhf9=>;%OXOOO   =-><=20uasssp9y              ",
"           hjhgdsp2OX.               ><7upi9elbbb           ",
"       xcxjyypaiy6&X                   &>55>ulxxxl          ",
"      kjljge>222:%                       &&=udjjjj          ",
"     xkjhda9&XXO                          O&3yshhjj         ",
"    cclhsu9>+.                              $>8udhhf        ",
"    hjjgu6:+                                 O-6usye        ",
"    qysae>O                                    &10yas       ",
"     ;>21&                                      &yjfsu0     ",
"   hae1=&O                                      O3hljsy0    ",
"  bclfu6>                                        O0xljde    ",
"  xlllgu3                                         <sllde3   ",
"  jhjjha3                                         ;pllse2   ",
"  jjjsiy2                                          ilgae2   ",
"  kjhdpu3                                          pjda71   ",
"  ssghdp2                                          pgsy5>   ",
"  y79005=                                          qie6<<   ",
" cli053>%                                          0gie77   ",
" lxclay7=                                          flxhp0   ",
" kjllsu9>                                          fhsap9   ",
" jjjgsie;                                          hxxjde   ",
" kklxkge&                                         ehcljgy   ",
"  gkllh5$                                         8gxjdsu   ",
"  e99u0*+                                         yhljssy6  ",
"  t7<-&#O                                          gjhsu6<  ",
"  pe52>*#O                                         djgi71<  ",
"  hae9e5;&                                         aga92<<  ",
"   gaaa9<&                                         eie767   ",
"  jjhgu92                                          <yuu097  ",
"  jjjgy9>                                           fjjsu6  ",
"  hjjgu91                                           gjhjge< ",
"  ljjgi9>                                           gjhjhi2 ",
"  lhhha7;                                           gjhjgp3 ",
"  hggsy5-                                           ahllgi5 ",
"  jljda0*                                           yhxlfe2 ",
"  jlgau6&                                           6ipy95  ",
"   aue9>O                                           yjzlfsp ",
"  giyye<#                                           ulbldu7 ",
" xhffda9&                                           ulldp0< ",
" xjjlha7%                                           ihhhse2 ",
" xjduua6+                                           yjllgu5 ",
" vzlhdi2O                                           9gllja6 ",
" lau06<&o                                           3phhgu3 ",
" dpy02*O                                            1u8451> ",
" cvjae4&                                            5ahkdp9-",
"clhdase&                                            3plxjgy>",
"ljjjjhe=                                            <pkkhdy2",
"jhlxld0*                                            -ihhdse2",
"jjllhu9*o                                          @&ydhjd81",
"jjjhay6&Oq                                        qq,7ipae4 ",
"asyppq1%3                                         iir<4774  ",
"  <64<                                             q8,;<    ",
"                                                            ",
"                                                            "
};
