/* XPM */
static char *pngegg__1_1704032870[] = {
/* columns rows colors chars-per-pixel */
"60 60 75 1 ",
"  c None",
". c #1E170B",
"X c #1F180D",
"o c #251B0D",
"O c #291E0F",
"+ c #231D12",
"@ c #291F10",
"# c #2B200F",
"$ c #262016",
"% c #2D2211",
"& c #26231A",
"* c #2B261B",
"= c #2D291E",
"- c #322613",
"; c #362914",
": c #3B2D16",
"> c #30271A",
", c #332B1E",
"< c #3F3017",
"1 c #3E331F",
"2 c #2D2A22",
"3 c #312E24",
"4 c #343026",
"5 c #3C3324",
"6 c #35332A",
"7 c #3A362C",
"8 c #3D392E",
"9 c #3E3B32",
"0 c #403017",
"q c #443319",
"w c #48371B",
"e c #4A381D",
"r c #403725",
"t c #443927",
"y c #413A2C",
"u c #423E34",
"i c #4C402C",
"p c #444137",
"a c #4B4333",
"s c #464238",
"d c #4A463B",
"f c #4D493D",
"g c #544833",
"h c #524B3C",
"j c #4E4A40",
"k c #524D42",
"l c #565146",
"z c #5A5446",
"x c #5B5649",
"c c #5E594C",
"v c #615745",
"b c #625C4D",
"n c #695F4D",
"m c #635E51",
"M c #6A604E",
"N c #666153",
"B c #6A6455",
"V c #6D6659",
"C c #6F685A",
"Z c #736C5D",
"A c #78705F",
"S c #766F60",
"D c #777061",
"F c #7B7464",
"G c #7F7867",
"H c #7F7868",
"J c #857D6C",
"K c #887F6E",
"L c #88806F",
"P c #8C8472",
"I c #908775",
"U c #918976",
"Y c #958D7A",
"T c #988F7C",
"R c #9A917E",
/* pixels */
"                     RRR   RRYYTRI                          ",
"                   TUTRRHKRYUPPURLD                         ",
"                 UUPLPPKmKPLJLPUPKSVVUPPPYR                 ",
"                JHJJJJJNkFPKKKKKHFZxCKKKKPTYU               ",
"            RRRTJSVDDDSjucCDFHHFDSmjVHKKKLPJCZ              ",
"           PTTYUKJmlNBk927ddjxmVBmzuNDFHJJHDmx              ",
"           KLPLKJFx497=++XXo+@$&=266smCSSDDZxV              ",
"           JJJHFFZs+XX..XX..ooooX.XX$39kCZCxcPRRR           ",
"       UTIKNNSSCBk=XXoooXooooooooooo..X=9js9VPUUUP          ",
"      KKPKHm9sss8&X.ooooooooo%OOOoooo...X226VFJKKK          ",
"     UPJJFSx2XXXoX..#%%##ooo%%%-%O%ooo..XX+2dBSJKKK         ",
"    YYPJDCx9+XXooX.o%--%%#oo%--:-%%ooo.o@XXX$uxCFJJF        ",
"    JKKHVk7+Xoo@oo.o%;;%%%#o%:::-;%#Oo.#%Ooo.X6kCDBm        ",
"    bBDSm9+Xoo%%%%oo-;;%%-#O-:::::%#%oXo--%oo.X=pcBDD       ",
"     79ss2Xoo%%-%%oo-::--%%o-:<:0:-#%%o@::%%Oo..=VJHDVx     ",
"   JSmp42+oo-%-:--@o-::;:-%O;<w0qq-%%%o@::;:;OooXfHPKFBc    ",
"  RYKHVl8+oO;-;:;-%O;:0;:--O;qw0q0;--%oO:w;::-oo.+cUPJFN    ",
"  UIUKHBd@o-:;::-;%@:0q0:-;O-qw0w0;;;-Oo0eq;:;OOoX8FPIFmd   ",
"  KKKJJSj+o;q:00;;%%;0w0::;O;qw:wq:;;-Oo0wq:::-OOo2ZILDms   ",
"  KKJDSBd+O;qwq0:;%%;qw::0:O-ww:wq::;-Oo0ww::;-%Oo=CPHScs   ",
"  KKJDSmd+o;qwwq:;%#;we:00:%-q0:eq:;;;OO0ww:0:-%Oo@CJFSxp   ",
"  DSHJFSd+O:wwwq:-%#;qe:0q;%;qqeeq:;;;OO0wq:q:--@O&CHDBj9   ",
"  Nxxcck3.o:qwwq:-#o;qe<00;%;qeew0;;;:OO0q::q:;-%o+zZmjuu   ",
" YPZckd9&oO:wwwq<-%o;qq;00;#-qwtwq;:;:%Oqq;:q:;;%O+kFSmll   ",
" PUTPSNl4++:eqqq0;%O:0qqq0;O-qwwq0-:;:%Oqq0wq::;%O*ZPUJCc   ",
" KKPPDVx7+O0eq0:0;OO:qqwq:-O-0ww0;;:;:-#qwqeq:::%O,JJFSZx   ",
" KKJHDZm6+%0wq000-@O;www0:OO-qww000;;:%Oqwqwq0:;-OrJUUKFm   ",
" KKIULFm2+-qwwqq0-OO;wqq0;-O-qwwqw;;;:%Oqwqwq0;:;OuKYPJJB   ",
"  HLIPHk2X-qwwq00-OO:wwq0;-O-qwwqq;00;#%qwqwq0::;OyJUKFSV   ",
"  mxxBx6+o-qwwqq:-O%0ww00:;O-qewqqq0;;-%qeqq0;;:;%uJPJSFNk  ",
"  Nlu622+o-0wwqw:-O-0wq;::-o-wweqqqq0;-#qewq:::;:OyJKJSCl9  ",
"  Zmjp92&o-0wq000;O-0ww00:-O-www0qwq0;--qewq0q0-:%6FKFCzpu  ",
"  JSmcmj6&;qwq0q:;O-:ewqq:-o-qqw0wwq0;-%qewqqw0;:#,ZGZxp9p  ",
"   HSSScs2-qqq00:-o;0ewqq:Oo-qwq0wwq;0#%qewqqw0;:-$bZNlll   ",
"  KKJFVxu=:qq:0:;Oo;0eqq0:OO-qw00wq0;;O%qewqqw0%:-o6BCBcxl  ",
"  KKPHNxu=:eq::;%Oo;qwwqw0%o-ww00q0;;;#%qwwqqw0::-o4ZLLFBk  ",
"  KJKFVxu*0wq0:;-OO:qqwqw0-o-wew00:;:;O%0qwqqeq0;;o2DKKKHNu ",
"  PKKJCxu>0wqq0:-OO:qqqqw:#o;qwq00-;:;OO0qqq0wq0<%+2DKJKJCs ",
"  IJJJSl6-qwq00:-O#:qq00w0-o;qww00;;;-o%qqq0;qq0:-@2CLKJFCd ",
"  HHHDNk4-qww:0:;O#:q0:qw:#O;qew000::Oo%qq0:-qqq;;o&VLPPHZj ",
"  KPJDSc2-ww000;-OO0wqqwq:#O:qwq;qq::%o#qw0:;0q0:-o+cJPPFms ",
"  KPJSCl&-qe00w:;O%:wwqwq:OO::ww-0q;;%o%qwqq:0wq:-o+dSZVxj  ",
"   SBmx9+;ee0eq:;O-0wwqwq;oO:<q:;qq;;%oOqwqw;0wq:-o$xKUPHFS ",
"  FSCmmu=0wwwwq:;O%0wwq0:;O#:::;:qq;:;O%0wqq:0qq:-o+mPRPFVk ",
" UJHJFZz>0qw0q:;-o-0wwq0:-oO::::000-:;O@qq0w:0w0:%o+mPPFZcu ",
" UKKKJSl=:wwqq0;#o-0wwqww:OO;::qqqq;:;OO000q0000:%o&BJJJDms ",
" UKFCCSk*:wwqqq:-O;0wqqww:-O-::0qw0;:;O@00:w000::%o$mKPPHCj ",
" TUPJFCs@:qeqqq0-O;0wqqww0-O-::q0w00::O%000tq00::%o+zJPPKSk ",
" PSVcku2@;qeqq<;-%;qw<qwq:-#-:;:<wq0<:@@<;<wq<<::;o$dDGJJNj ",
" FSNxd3+o;<wqw;;%%;qq<<eq:-O-:::<ww0:-@-;:<wq:<:;%#$9Bxjdp9 ",
" TUKSNd2o;<qqq:;%%;<q:<w0;-O%-::;ww0;-@@-;:qq;;<;-%$dDJLHZx4",
"TPKFSDm2%:qq<<;-%%;w<;<w:;-O#-:;-qq<;@OO%;<qq;%;;%%$sZPULHN9",
"PKJJJHN4%<qww<-%##;w<:<w;;-OO-;;@0q<-@OO@%<::;#--%#+9ZLLJFNs",
"KJPUPFc4-0wqw0-%%#;wq;;q---oO---@:q:-Oooo%;;:-O#%#oo6CLHFDNd",
"LJIPHCx3%:q;-#O%##;q:-;:-;%%>-%#O;<-@@oO%%#-;;O##%&$2NFJLFxp",
"LLKJFNk2oava555taaagi51155tdnNvhtttrr5uahy,,,,,,68zM8xCZZmf ",
"SFNSZxp=dZZZZZZZZZZZZCBMNBVZZZAZSZZZZZZZFZNbccxxbBZZMudllf  ",
"  ukku  vbbnnMnnnbnvxlzvxvvxccvcbbbnbnnbbvbbnbbczlzzxy7u    ",
"                                                            ",
"                                                            "
};
