/* XPM */
static char *result[] = {
/* columns rows colors chars-per-pixel */
"60 60 241 2 ",
"   c #121F2A",
".  c #131D26",
"X  c #0F1C27",
"o  c #241F26",
"O  c #291F25",
"+  c #3E1F25",
"@  c #15222C",
"#  c #1A242C",
"$  c #1B2832",
"%  c #2A2325",
"&  c #232429",
"*  c #272528",
"=  c #322225",
"-  c #3C2224",
";  c #3A2926",
":  c #222E38",
">  c #26333A",
",  c #353730",
"<  c #6C1F1C",
"1  c #6D211D",
"2  c #66281F",
"3  c #73221C",
"4  c #7A271C",
"5  c #76361E",
"6  c #482523",
"7  c #582521",
"8  c #513A28",
"9  c #652521",
"0  c #693730",
"q  c #582020",
"w  c #544A2E",
"e  c #72542C",
"r  c #7E451E",
"t  c #263841",
"y  c #333E46",
"u  c #36414A",
"i  c #374349",
"p  c #3F4952",
"a  c #3D4753",
"s  c #3D5356",
"d  c #3D5459",
"f  c #4A4549",
"g  c #584548",
"h  c #444D55",
"j  c #46535B",
"k  c #595A5A",
"l  c #58554C",
"z  c #79524C",
"x  c #695856",
"c  c #6D534B",
"v  c #5B635D",
"b  c #66665B",
"n  c #756A58",
"m  c #787354",
"M  c #475E63",
"N  c #565D64",
"B  c #4B656A",
"V  c #536363",
"C  c #596E69",
"Z  c #576667",
"A  c #5A7375",
"S  c #596D70",
"D  c #656A62",
"F  c #6B6D61",
"G  c #687465",
"H  c #797868",
"J  c #697579",
"K  c #796F6D",
"L  c #872718",
"P  c #9B2C16",
"I  c #942A18",
"U  c #86331B",
"Y  c #963619",
"T  c #A92E16",
"R  c #B82C16",
"E  c #AC3417",
"W  c #B63414",
"Q  c #B23219",
"!  c #BB3815",
"~  c #A53B28",
"^  c #B63A21",
"/  c #CD370F",
"(  c #D53A0F",
")  c #DA3C0F",
"_  c #CD3513",
"`  c #CC3B13",
"'  c #C63715",
"]  c #D33B11",
"[  c #D73911",
"{  c #E13E0C",
"}  c #8D491E",
"|  c #91481C",
" . c #99521C",
".. c #B95117",
"X. c #B7681E",
"o. c #8C473C",
"O. c #9B4A38",
"+. c #B05130",
"@. c #906F30",
"#. c #B66925",
"$. c #AA6D39",
"%. c #B56C36",
"&. c #B06829",
"*. c #DC420D",
"=. c #D7400D",
"-. c #D94711",
";. c #DB5812",
":. c #CA5118",
">. c #E1430D",
",. c #E0490F",
"<. c #E45812",
"1. c #E34E10",
"2. c #D66818",
"3. c #CB751C",
"4. c #C86A19",
"5. c #FD750F",
"6. c #E66914",
"7. c #F56C12",
"8. c #FA6C12",
"9. c #E7741E",
"0. c #EC751B",
"q. c #EC7614",
"w. c #FB7511",
"e. c #FC7912",
"r. c #F37416",
"t. c #D14C2A",
"y. c #CB6C28",
"u. c #D77227",
"i. c #CB752C",
"p. c #E57521",
"a. c #855E52",
"s. c #B45942",
"d. c #966A45",
"f. c #8A6E51",
"g. c #A66943",
"h. c #A86650",
"j. c #866F69",
"k. c #B27E73",
"l. c #D36648",
"z. c #D27F68",
"x. c #7C8277",
"c. c #98803D",
"v. c #B98728",
"b. c #B9983C",
"n. c #C5841E",
"m. c #EA8618",
"M. c #F78717",
"N. c #F29B1A",
"B. c #F89719",
"V. c #E6981C",
"C. c #F5A41A",
"Z. c #FBAC1A",
"A. c #F9A518",
"S. c #FDB41B",
"D. c #FFB91C",
"F. c #F6B21D",
"G. c #EEAC1C",
"H. c #CB902C",
"J. c #FB8522",
"K. c #ED932B",
"L. c #D8A72B",
"P. c #D5A936",
"I. c #EBAD25",
"U. c #E9AB27",
"Y. c #F8AA26",
"T. c #EBB22A",
"R. c #FDBC25",
"E. c #FAB626",
"W. c #EFB537",
"Q. c #FDC42D",
"!. c #FDC537",
"~. c #FDD13B",
"^. c #92894B",
"/. c #918750",
"(. c #B7A758",
"). c #949273",
"_. c #AF8975",
"`. c #BD9D5D",
"'. c #CDB550",
"]. c #F3B244",
"[. c #D08B5D",
"{. c #FDC646",
"}. c #F5CF51",
"|. c #FFDB66",
" X c #F9D668",
".X c #F9D475",
"XX c #EDCE64",
"oX c #FEE064",
"OX c #758D8B",
"+X c #85898C",
"@X c #8E959A",
"#X c #829897",
"$X c #919798",
"%X c #8F8D86",
"&X c #B7908C",
"*X c #99A498",
"=X c #B3B78B",
"-X c #87AFA7",
";X c #9BA2A7",
":X c #96BDB6",
">X c #97BEB8",
",X c #90B4AD",
"<X c #A6ADAB",
"1X c #B0B9B8",
"2X c #D7AC94",
"3X c #D2B3AD",
"4X c #9CC4BC",
"5X c #AFC3B9",
"6X c #FDE29B",
"7X c #CFC8BA",
"8X c #EFCDB9",
"9X c #FCE4A7",
"0X c #FEEAB3",
"qX c #FBDA8D",
"wX c #B3D2C9",
"eX c #BAC9C4",
"rX c #C5DDD1",
"tX c #D4D8D7",
"yX c #C7D2CB",
"uX c #E6D1CD",
"iX c #DAEEDE",
"pX c #D3E8DB",
"aX c #CEE5DC",
"sX c #F9EAC6",
"dX c #FDF1CE",
"fX c #FDF4D8",
"gX c #E5E6D5",
"hX c #DAE6E2",
"jX c #DCF0E3",
"kX c #E7E9EB",
"lX c #E6E7E6",
"zX c #EAF4EC",
"xX c #E6F3E9",
"cX c #F9F5E8",
"vX c #EEF0F0",
"bX c #F5FBF5",
"nX c #FCFCF5",
"mX c #FEFEFE",
"MX c #F3F4F4",
"NX c #F5EDEA",
"BX c None",
/* pixels */
"BXBXBXBXBXBXBXBXBXBXBXBXBXBXBXBXBXBXBXBXBXBXBXBXBXBXBXBXBXBXBXBXBXBXBXBXBXBXBXBXBXBXBXBXBXBXBXBXBXBXBXBXBXBXBXBXBXBXBXBX",
"BXBXBXBXBXBXBXBXBXBXBXBXBXBXBXBXBXBXBXBXBXBXBXBXBXBXBXBXBXBXBXBXBXBXBXBXBXBXBXBXBXBXBXBXBXBXBXBXBXBXBXBXBXBXBXBXBXBXBXBX",
"BXBXBXBXBXBXBXBXBXBXBXBXBXBXBXBXBXBXBXBXBXBXBXBXBXBXBXBXBXBXBXBXBXBXBXBXBXBXBXBXBXBXBXBXBXBXBXBXBXBXBXBXBXBXBXBXBXBXBXBX",
"BXBXBXBXBXBXBXBXBXBXBXBXBXBXBXBXBXBXBXBXBXBXBXBXBXBXBXBXBXBXBXBXBXBXBXBXBXBXBXBXBXBXBXBXBXBXBXBXBXBXBXBXBXBXBXBXBXBXBXBX",
"BXBXBXBXBXBXBXBXBXBXBXBXBXBXBXBXBXBXBXBXBXBXBXBXBXBXBXBXBXBXBXBXBXBXBXBXBXBXBXBXBXBXBXBXBXBXBXBXBXBXBXBXBXBXBXBXBXBXBXBX",
"BXBXBXBXBXBXBXBXBXBXBXBXBXBXBXBXBXBXBXBXBXBXBXBXBXBXBXBXBXBXBXBXBXBXBXBXBXBXBXBXBXBXBXBXBXBXBXBXBXBXBXBXBXBXBXBXBXBXBXBX",
"BXBXBXBXBXBXBXBXBXBXBXBXBXBXBXBXBXBXBXBXBXBXBXBXBXBXBXBXBXBXBXBXBXBXBXBXBXBXBXBXBXBXBXBXBXBXBXBXBXBXBXBXBXBXBXBXBXBXBXBX",
"BXBXBXBXBXBXBXBXBXBXBXBXBXBXBXBXBXBXBXBXBXBXBXBXBXBXBXBXBXBXBXBXBXBXBXBXBXBXBXBXBXBXBXBXBXBXBXBXBXBXBXBXBXBXBXBXBXBXBXBX",
"BXBXBXBXBXBXBXBXBXBXBXBXBXBXBXBXBXBXBXBXBXBXBXBXBXBXBX    @ @ @     # # # BXBXBXBXBXBXBXBXBXBXBXBXBXBXBXBXBXBXBXBXBXBXBX",
"BXBXBXBXBXBXBXBXBXBXBXBXBXBXBXBXBXBXBXBXBXBXBXBX@ @ $ y u u i i u y > @   BXBXBXBXBXBXBXBXBXBXBXBXBXBXBXBXBXBXBXBXBXBXBX",
"BXBXBXBXBXBXBXBXBXBXBXBXBXBXBXBXBXBXBXBX#     > N @XyXhXkXkXlXkXlXlXtX<XJ y # X @ BXBXBXBXBXBXBXBXBXBXBXBXBXBXBXBXBXBXBX",
"BXBXBXBXBXBXBXBXBXBXBXBXBXBXBXBXBXBXBX$ # , +XyXvXnXdX0X9XfXmXnX9X9XdXcXnXhX<Xl #   BXBXBXBXBXBXBXBXBXBXBXBXBXBXBXBXBXBX",
"BXBXBXBXBXBXBXBXBXBXBXBXBXBXBXBXBX$ @ , @.'.dXfXqX}.W.R.R.9XNXfX{.E.E.{..XfXmX.Xv.w $ @ BXBXBXBXBXBXBXBXBXBXBXBXBXBXBXBX",
"BXBXBXBXBXBXBXBXBXBXBXBXBXBXBXBX@ @ w H.R. X.X!.Y.3.y.&.&.g.h.h.&.&.#.X.K.sXmX9X{.T.@.,   @ BXBXBXBXBXBXBXBXBXBXBXBXBXBX",
"BXBXBXBXBXBXBXBXBXBXBXBXBXBXBXBX* e T.{.0XcX].u.%.2XJ j j j j j M j k <Xk.k.8XNXfX.XQ.v.w X BXBXBXBXBXBXBXBXBXBXBXBXBXBX",
"BXBXBXBXBXBXBXBXBXBXBXBXBXBX@ & c.E. XfXMX&Xz g N 1X_.d.d.d.d.d.d.d.h.3XOXf g _.uXnX9X~.U.w @ $ BXBXBXBXBXBXBXBXBXBXBXBX",
"BXBXBXBXBXBXBXBXBXBXBXBXBXBX$ @.D..XcXgXk.g M V D G b.0.J.J.J.J.M.J.K.H D v M h j.3XMXsX{.U.w @ BXBXBXBXBXBXBXBXBXBXBXBX",
"BXBXBXBXBXBXBXBXBXBXBXBXBX> /.E.oXbX7Xa.f v D $.K.XX X|..X|.|.|.|.|. XXXP.u.n Z j c k.NXdX~.W.l BXBXBXBXBXBXBXBXBXBXBXBX",
"BXBXBXBXBXBXBXBXBXBXBX$ @ J cX X.X8Xj.h B $.0.K.].|.(./.^./././.^.^.^. X}.W.p.u.Z M g &X8X{.6XtXp @ BXBXBXBXBXBXBXBXBXBX",
"BXBXBXBXBXBXBXBXBXBXBXX j lXfX{.V.z k n %.9.Y.!.}.'.m a p p p p p h k (.XX{.Y.e.i.g.N x $.D..XnX1X: BXBXBXBXBXBXBXBXBXBX",
"BXBXBXBXBXBXBXBXBXBX@ : 1XnX XG.O.k M g.w.J.!.}.'., ;XMXvXvXvXvXvXMXtXu c.}.~.Y.e.p.D B c #.R.6XmXJ   BXBXBXBXBXBXBXBXBX",
"BXBXBXBXBXBXBXBXBXBX  x NX9XZ.#.l b d.H.A.!.~.c.l <XhXmXmXmXmXmXmXmXMX5Xx.w P.~.Y.K.g.d.N l 3.W.dX7X, $ BXBXBXBXBXBXBXBX",
"BXBXBXBXBXBXBXBXBXBX# v.{.!.U.l M f.e.Y.Q.U.@.H $XxXmXmXmXbXMXMXnXmXmXbX5Xx.d.H.E.R.B.0.b M e I.{.].e X BXBXBXBXBXBXBXBX",
"BXBXBXBXBXBXBXBXBXBX# v.S.Z.H.+XS $.M.R.E.2.% ;XmXmXmXbXxXwX4X4XpXbXmXmXmXgXu | J.R.E.0.d.A +XH.D.S.e X BXBXBXBXBXBXBXBX",
"BXBXBXBXBXBXBXBXBX# , n.D.V.%.7XH 2.5.M.M.2.* ;XmXmXbXpXD j d d N <XmXmXmXkXu | e.e.e.w.y.x.7X%.G.S.@.* BXBXBXBXBXBXBXBX",
"BXBXBXBXBXBXBXBX@ * v.Z.D.L.l H u.5.5.5.5.2.* ;XmXmXbXwX: o % * . +XmXmXmXkXy | w.w.w.w.r.i.H c I.D.G.e @ BXBXBXBXBXBXBX",
"BXBXBXBXBXBXBXBX. , V.S.D.L.V b e.e.5.M.5.2.& #XhXhXaXwX> 5 ! E = OXmXmXmXlXy | w.w.w.w.w.9.b v I.D.Z.X.# @ BXBXBXBXBXBX",
"BXBXBXBXBXBXBXBX. 8 N.S.D.L.C m 0.e.5.5.5.2.; A -X-X-XOX> ..7.2.w $XmXmXzXrXy | w.w.e.w.w.9.b G I.R.Z.3.& $ BXBXBXBXBXBX",
"BXBXBXBXBXBXBXBX@ 8 M.Z.D.L.C n r.e.e.5.w.7.Q 0 t t t > # ..X.8 7XvXmXbXrX,X> | w.w.w.w.w.9.D G G.D.A.3.* @ BXBXBXBXBXBX",
"BXBXBXBXBXBXBXBX@ 8 M.Z.D.P.C n 0.e.e.e.w.r.1.Y 2 2 2 2 9 [.2X@XiXbXxXwXOXC 0 ..8.w.w.w.e.9.D G I.D.B.4.* $ BXBXBXBXBXBX",
"BXBXBXBXBXBXBXBX@ 8 q.A.D.L.C n 0.e.w.e.w.w.w.;.=.=.' ' t.8XmXmXxXjXaX,XB * ! <.w.5.w.w.e.0.b G I.D.B.4.* @ BXBXBXBXBXBX",
"BXBXBXBXBXBXBXBX@ 6 ;.C.D.L.C n 0.e.e.w.e.w.w.7.7.r.$.K 7XNXbXxXwX4X-Xs $ * :.7.w.w.e.w.e.9.F G T.D.q...* $ BXBXBXBXBXBX",
"BXBXBXBXBXBXBXBX@ 6 =.m.D.L.C F 0.w.w.w.w.e.e.e.q. .).1XzXbXxXrXOXB B 0 5 } q.w.w.w.w.w.w.9.D G I.D.6.E # @ BXBXBXBXBXBX",
"BXBXBXBXBXBXBXBX$ * =.r.D.L.C n 7.5.w.w.w.w.e.0.X.y 1XmXbXxXwXOXt X o ..:.6.7.w.w.w.w.w.w.0.D F I.S.<.Y # # BXBXBXBXBXBX",
"BXBXBXBXBXBXBXBX@ & E 6.F.T.).F %.u.w.w.w.w.w.r f eXkXmXxXwXOX>   .   o = 6 2.w.7.w.7.r.i.$.D ).E.C.-.5 @ BXBXBXBXBXBXBX",
"BXBXBXBXBXBXBXBXBX@ U <.C.Q.XXF B f.7.r.w.6.} j.;XkXmXmXbXhXeX@X@X@X@X@X@X@Xe :.8.w.w.6.b v x.XXD.m.=.7 @ BXBXBXBXBXBXBX",
"BXBXBXBXBXBXBXBXBX@ 7 =.m.D.Y.+.D z -.8.w.2.& ;XmXmXmXmXmXmXmXmXmXmXmXmXmXkXu | 8.8.7.:.b D y.Y.S.6.! = # BXBXBXBXBXBXBX",
"BXBXBXBXBXBXBXBXBX$ * W 6.S.N.+.Z z ` <.7.2.* ;XmXmXnXbXbXnXnXbXbXnXbXbXnXlXi | 8.<.-.! k x :.A.N.,.U . @ BXBXBXBXBXBXBX",
"BXBXBXBXBXBXBXBXBX$ @ U -.M.Z.n.b x ~ ^ <.;.* #XjXvXlXpXjXiXiXiXjXiXiXiXiXrXy | 8.` ~ O.k n V.Z.q.` 6 @ BXBXBXBXBXBXBXBX",
"BXBXBXBXBXBXBXBXBXBX@ 7 ' 6.Z.A.%.x B o._ ..* A :X:X4X:X:X>X:X:X:X:X:X:X:X-X> U _ ^ x N a.3.F.N.-.T & $ BXBXBXBXBXBXBXBX",
"BXBXBXBXBXBXBXBXBXBX$ + P =.m.S.A.O.<X_.a.R 4 g d d d d s d d d d d d a d h 0 Q ~ j.1Xj.4.D.Z.6._ 9 & $ BXBXBXBXBXBXBXBX",
"BXBXBXBXBXBXBXBXBXBX@ - < W -.N.Z.n.2X%XN ~ ' 9 o o o o o o o o o o o o o = T ^ x S 2X[.m.E.q.) T q & BXBXBXBXBXBXBXBXBX",
"BXBXBXBXBXBXBXBXBXBXBX= q L ] 1.C.S.9.@.M V x o.Q T T R Q Q Q Q Q Q R Q Q ~ x N N b y.N.D.m.*.W < 6 & BXBXBXBXBXBXBXBXBX",
"BXBXBXBXBXBXBXBXBXBXBX# 6 3 P ] <.C.D.L.d.b B z O.l.t._ _ _ _ ` _ _ [ l.+.a.Z N m v.F.S.q.*.' L 9 = BXBXBXBXBXBXBXBXBXBX",
"BXBXBXBXBXBXBXBXBXBXBX$ o q 3 T ( ;.B.D.G.#.k B J gXz.R R R R R R R s.uX;XB B @.m.D.Z.0.>.' L 3 6 @ BXBXBXBXBXBXBXBXBXBX",
"BXBXBXBXBXBXBXBXBXBXBXBX@ = < < I / -.m.S.F.H.(.=X*Xj.z z c z z z z a.$X=X(.b.U.S.A.6.) ! L 4 9 & @ BXBXBXBXBXBXBXBXBXBX",
"BXBXBXBXBXBXBXBXBXBXBXBXBXBX+ < < 4 ' ( 6.N.F.~.}.P.^.f.G B B V C m f.P.}.}.D.Z.m.;.) Q 3 3 < O BXBXBXBXBXBXBXBXBXBXBXBX",
"BXBXBXBXBXBXBXBXBXBXBXBXBXBX  + 9 < W _ ' -.6.N.F.D.D.R.L.b.b.b.b.T.F.E.S.A.m.;.) ' _ I < q O   BXBXBXBXBXBXBXBXBXBXBXBX",
"BXBXBXBXBXBXBXBXBXBXBXBXBXBXBXBX= 9 R P L _ [ *.<.m.B.A.S.S.D.S.E.Z.N.m.6.1.=.[ W 3 ' I q o BXBXBXBXBXBXBXBXBXBXBXBXBXBX",
"BXBXBXBXBXBXBXBXBXBXBXBXBXBXBXBX$ O I P 4 _ / ' ! ( ( *.1.;.;.<.;.-.=.( / W ` _ T 3 R 7 # BXBXBXBXBXBXBXBXBXBXBXBXBXBXBX",
"BXBXBXBXBXBXBXBXBXBXBXBXBXBXBXBXBX@ % 6 < _ [ I 3 / W T / ( ( ( ) ! T / P 3 ' / T q - # BXBXBXBXBXBXBXBXBXBXBXBXBXBXBXBX",
"BXBXBXBXBXBXBXBXBXBXBXBXBXBXBXBXBXBXBX@ O 4 W I 3 / I 3 / *.*.>.>.T 3 / P 1 R I 6 # BXBXBXBXBXBXBXBXBXBXBXBXBXBXBXBXBXBX",
"BXBXBXBXBXBXBXBXBXBXBXBXBXBXBXBXBXBXBX#     % 6 7 W L 3 ( { { { *.E 1 W 4 6 - # @ @ BXBXBXBXBXBXBXBXBXBXBXBXBXBXBXBXBXBX",
"BXBXBXBXBXBXBXBXBXBXBXBXBXBXBXBXBXBXBXBXBXBXBX  . % % - 3 U U U 5 7 = = & @ BXBXBXBXBXBXBXBXBXBXBXBXBXBXBXBXBXBXBXBXBXBX",
"BXBXBXBXBXBXBXBXBXBXBXBXBXBXBXBXBXBXBXBXBXBXBXBX@     @ @ @ @ @ # . @ @ @ @ BXBXBXBXBXBXBXBXBXBXBXBXBXBXBXBXBXBXBXBXBXBX",
"BXBXBXBXBXBXBXBXBXBXBXBXBXBXBXBXBXBXBXBXBXBXBXBXBXBXBXBXBXBXBXBXBXBXBXBXBXBXBXBXBXBXBXBXBXBXBXBXBXBXBXBXBXBXBXBXBXBXBXBX",
"BXBXBXBXBXBXBXBXBXBXBXBXBXBXBXBXBXBXBXBXBXBXBXBXBXBXBXBXBXBXBXBXBXBXBXBXBXBXBXBXBXBXBXBXBXBXBXBXBXBXBXBXBXBXBXBXBXBXBXBX",
"BXBXBXBXBXBXBXBXBXBXBXBXBXBXBXBXBXBXBXBXBXBXBXBXBXBXBXBXBXBXBXBXBXBXBXBXBXBXBXBXBXBXBXBXBXBXBXBXBXBXBXBXBXBXBXBXBXBXBXBX",
"BXBXBXBXBXBXBXBXBXBXBXBXBXBXBXBXBXBXBXBXBXBXBXBXBXBXBXBXBXBXBXBXBXBXBXBXBXBXBXBXBXBXBXBXBXBXBXBXBXBXBXBXBXBXBXBXBXBXBXBX",
"BXBXBXBXBXBXBXBXBXBXBXBXBXBXBXBXBXBXBXBXBXBXBXBXBXBXBXBXBXBXBXBXBXBXBXBXBXBXBXBXBXBXBXBXBXBXBXBXBXBXBXBXBXBXBXBXBXBXBXBX"
};
