/* XPM */
static char *result[] = {
/* columns rows colors chars-per-pixel */
"60 60 254 2 ",
"   c #24002E",
".  c #2A012F",
"X  c #250131",
"o  c #2C0133",
"O  c #2D073A",
"+  c #330234",
"@  c #3B0434",
"#  c #340339",
"$  c #3C033B",
"%  c #30083C",
"&  c #2A0D37",
"*  c #43043B",
"=  c #4B043E",
"-  c #470837",
";  c #5C0B3D",
":  c #54093B",
">  c #511439",
",  c #6B0D3D",
"<  c #63093B",
"1  c #740338",
"2  c #68143B",
"3  c #78153D",
"4  c #7A273A",
"5  c #6B263A",
"6  c #1C1748",
"7  c #1C0F40",
"8  c #3A0944",
"9  c #30144A",
"0  c #3C2F6A",
"q  c #232B5E",
"w  c #480743",
"e  c #5C0542",
"r  c #570741",
"t  c #4B1D4E",
"y  c #4C1C51",
"u  c #52154D",
"i  c #680942",
"p  c #781743",
"a  c #71134A",
"s  c #582655",
"d  c #523859",
"f  c #622356",
"g  c #7A1F66",
"h  c #5A3769",
"j  c #513777",
"k  c #7C2878",
"l  c #6C336F",
"z  c #155673",
"x  c #78494D",
"c  c #514676",
"v  c #73477D",
"b  c #766A73",
"n  c #8A0439",
"m  c #8A163E",
"M  c #8D193D",
"N  c #83183C",
"B  c #921D3D",
"V  c #99163C",
"C  c #98073A",
"Z  c #A60637",
"A  c #A9183B",
"S  c #B60C37",
"D  c #9B233B",
"F  c #98273C",
"G  c #8A2D3B",
"H  c #AA2A3A",
"J  c #A5283A",
"K  c #A9333B",
"L  c #B7373C",
"P  c #B22D3C",
"I  c #CE1038",
"U  c #E51A39",
"Y  c #CB2E3E",
"T  c #EC2E3B",
"R  c #8F483D",
"E  c #B44D3D",
"W  c #C8453B",
"Q  c #CE553D",
"!  c #E2673E",
"~  c #891544",
"^  c #931748",
"/  c #8A1755",
"(  c #9A1A5C",
")  c #981A54",
"_  c #970D51",
"`  c #A71A55",
"'  c #B0194A",
"]  c #892442",
"[  c #9A2743",
"{  c #992E49",
"}  c #A92847",
"|  c #BA2C4D",
" . c #A83544",
".. c #B83845",
"X. c #A52352",
"o. c #B72B53",
"O. c #BF3350",
"+. c #9A1C64",
"@. c #822A7A",
"#. c #992874",
"$. c #952F72",
"%. c #B0316F",
"&. c #CE1746",
"*. c #C8384B",
"=. c #D43C4C",
"-. c #C93656",
";. c #D23A52",
":. c #D02851",
">. c #E93A46",
",. c #E2294B",
"<. c #CE3268",
"1. c #E23F66",
"2. c #994542",
"3. c #975049",
"4. c #BA4541",
"5. c #B95644",
"6. c #AB4C4A",
"7. c #977157",
"8. c #B96347",
"9. c #AE734F",
"0. c #8B516E",
"q. c #C84946",
"w. c #D3414C",
"e. c #D84A4A",
"r. c #C75647",
"t. c #D9534B",
"y. c #DB4B53",
"u. c #D45557",
"i. c #E5494B",
"p. c #F34844",
"a. c #E3544B",
"s. c #E85B4B",
"d. c #F55547",
"f. c #EA5E53",
"g. c #C96746",
"h. c #CB6353",
"j. c #D07250",
"k. c #EC624A",
"l. c #E8694A",
"z. c #F26C4B",
"x. c #F86749",
"c. c #E77648",
"v. c #F5744A",
"b. c #F57A4B",
"n. c #FA7C4A",
"m. c #FA764A",
"M. c #E66253",
"N. c #F37750",
"B. c #D75062",
"V. c #D77B67",
"C. c #E65D68",
"Z. c #D08C51",
"A. c #EA8749",
"S. c #FD844A",
"D. c #FD8B4B",
"F. c #F7854E",
"G. c #FE934C",
"H. c #FE9C4E",
"J. c #F59949",
"K. c #F88952",
"L. c #FC9D52",
"P. c #F89452",
"I. c #E99251",
"U. c #FBA54B",
"Y. c #EAAA5A",
"T. c #FEA352",
"R. c #FDAB54",
"E. c #F7AA59",
"W. c #FDBB5C",
"Q. c #FCB358",
"!. c #FDBA47",
"~. c #D28B6A",
"^. c #E99A6D",
"/. c #D6B278",
"(. c #F0B370",
"). c #D8A756",
"_. c #FEC75E",
"`. c #FDCD63",
"'. c #FBC767",
"]. c #FDD265",
"[. c #FCD46B",
"{. c #FED96A",
"}. c #F6C477",
"|. c #FAD776",
" X c #EDC477",
".X c #FCE37C",
"XX c #FCE577",
"oX c #AC8F6A",
"OX c #096393",
"+X c #047EAD",
"@X c #1C5C90",
"#X c #5C558C",
"$X c #556793",
"%X c #6F72AF",
"&X c #6E669B",
"*X c #883880",
"=X c #8A4985",
"-X c #944E8E",
";X c #BD7D92",
":X c #AE6790",
">X c #8D6EB1",
",X c #9F5D99",
"<X c #CC448A",
"1X c #D254A6",
"2X c #13B1B7",
"3X c #249EA3",
"4X c #18CEBC",
"5X c #3CA5C7",
"6X c #6B9BC8",
"7X c #13EDD5",
"8X c #17F4D6",
"9X c #0EF6D8",
"0X c #2BEEDB",
"qX c #13D5C0",
"wX c #4DF4D8",
"eX c #6EE7D5",
"rX c #6987B0",
"tX c #BD8294",
"yX c #BF829B",
"uX c #AF839E",
"iX c #9389AD",
"pX c #C48697",
"aX c #CD8F98",
"sX c #D9A7A4",
"dX c #F8D883",
"fX c #EAC989",
"gX c #FBEC8B",
"hX c #FAE986",
"jX c #FDF58B",
"kX c #F7EA95",
"lX c #FEFC94",
"zX c #FDFD9B",
"xX c #FCF595",
"cX c #FDF5AD",
"vX c #EFC6A9",
"bX c #9291CA",
"nX c #B0ABD3",
"mX c #99B7E5",
"MX c #B0B4E5",
"NX c #A99BCF",
"BX c #C1BDE2",
"VX c #AFF3DD",
"CX c #B3C5E4",
"ZX c #AFECE1",
"AX c #93EBDD",
"SX c #D3CEDA",
"DX c #E0D5D5",
"FX c #DFF2DE",
"GX c #E9E8DF",
"HX c #FAFBDF",
"JX c #CFCFE1",
"KX c #C9FCE1",
"LX c #F2F9E0",
"PX c None",
/* pixels */
"PXPXPXPXPXPXPXPXPXPXPXPXPXPXPXPXPXPXPXPXPXPXPXPXPXPXPXPXPXPXPXPXPXPXPXPXPXPXPXPXPXPXPXPXPXPXPXPXPXPXPXPXPXPXPXPXPXPXPXPX",
"PXPXPXPXPXPXPXPXPXPXPXPXPXPXPXPXPXPXPXPXPXPXPXPXPXPXPXPXPXPXPXPXPXPXPXPXPXPXPXPXPXPXPXPXPXPXPXPXPXPXPXPXPXPXPXPXPXPXPXPX",
"PXPXPXPXPXPXPXPXPXPXPXPXPXPXPXPXPXPXPXPXPXPXPXPXPXPXPXPXPXPXPXPXPXPXPXPXPXPXPXPXPXPXPXPXPXPXPXPXPXPXPXPXPXPXPXPXPXPXPXPX",
"PXPXPXPXPXPXPXPXPXPXPXPXPXPXPXPXPXPXPXPXPXPXPXPXPXPXJ J J J F PXPXPXPXPXPXPXPXPXPXPXPXPXPXPXPXPXPXPXPXPXPXPXPXPXPXPXPXPX",
"PXPXPXPXPXPXPXPXPXPXPXPXPXPXPXPXPXPXPXPXPXPXPXPXN J H K L K J B , PXPXPXPXPXPXPXPXPXPXPXPXPXPXPXPXPXPXPXPXPXPXPXPXPXPXPX",
"PXPXPXPXPXPXPXPXPXPXPXPXPXPXPXPXPXPXPXPXPXPXPX; 2 K A.!.U.c.W K N i r PXPXPXPXD D PXPXPXPXPXPXPXPXPXPXPXPXPXPXPXPXPXPXPX",
"PXPXPXPXPXPXPXPXPXPXPXPXPXPXPXPXPXPXPXPXPXPXr , J K E E E Q W K D , e = PXPXPXJ D PXPXPXPXPXPXPXPXPXPXPXPXPXPXPXPXPXPXPX",
"PXPXPXPXPXPXPXPXPXPXPXPXPXPXPXPXPXPXPXPXPX- = a 1 - 2 G G H L H H J D B J H J J D ; PXPXPXPXPXPXPXPXPXPXPXPXPXPXPXPXPXPX",
"PXPXPXPXPXPXPXPXPXPXPXPXPXPXPXPXPXPXPXPXPX$ * e - 5 L W Q A.U.A.! Q W P H H H H N - PXPXPXPXPXPXPXPXPXPXPXPXPXPXPXPXPXPX",
"PXPXPXPXPXPXPXPXPXPXPXPXPXPXPXPXPXPXP N e # * w - 1 a D W A.!.!.U.! Q P H H H B > N L PXPXPXPXPXPXPXPXPXPXPXPXPXPXPXPXPX",
"PXPXPXPXPXPXPXPXPXPXPXPXPXPXPXPXg.g.J 4 p > $ * @ r r < D H E E r.Y P H H H M ; + 4 K j.5.PXPXPXPXPXPXPXPXPXPXPXPXPXPXPX",
"PXPXPXPXPXPXPXPXPXPXPXPXPXPXV E 8.R 7.).'.8.- * + - e e < N D J H H H J B 3 : $ 3.Z.9.R g.L PXPXPXPXPXPXPXPXPXPXPXPXPXPX",
"PXPXPXPXPXPXPXPXPXPXPXPXPX3 F G R ).].{.XX'. .- o + = : : < < 1 p n p i r w $ 3.(.{.`.Z.G F M PXPXPXPXPXPXPXPXPXPXPXPXPX",
"PXPXPXPXPXPXPXPXPXPXPXPX; a 3 6.Q.].{.XXlXlX(. .- o + - - : r r : = w * $ : 6.fXkXXX{._.).2.3 , PXPXPXPXPXPXPXPXPXPXPXPX",
"PXPXPXPXPXPXPXPXPXPXPXPX; r 2.P.W.`.XXjXlXlXlX(.e.N - + o + + + @ @ - < [ j.dXzXjXjXXX_.Q.P.G ; r PXPXPXPXPXPXPXPXPXPXPX",
"PXPXPXPXPXPXPXPXPXPXPXw r 4 v.T._.[.XXjXlXlXzXzX(.b.e.} N 3 , , 3 B *.s.(.kXzXlXjXjXXX]._.L.g.2 r PXPXPXPXPXPXPXPXPXPXPX",
"PXPXPXPXPXPXPXPXPXPXPXw r r.n.R.W.`.].[..XjXzXzXzXhX(.K.m.x.k.k.z.K.(.dXzXzXlXjX|.[.[.`.W.T.v. .w w PXPXPXPXPXPXPXPXPXPX",
"PXPXPXPXPXPXPXPXPXPXPX8 p d.K.Q.(.|..X|.'.[..XjXzXzXlXgX}.}.(.'.|.kXxXzXzXjXXX`.].|.|.|._.R.b.t.; w PXPXPXPXPXPXPXPXPXPX",
"PXPXPXPXPXPXPXPXPXPX$ $  .x.I.8.8.8.~.fXgX[.'.[.hXjXzXzXzXzXzXzXzXzXxXjX|.[.`.|.gX/.j.8.6.j.N.d.p $ PXPXPXPXPXPXPXPXPXPX",
"PXPXPXPXPXPXPXPXPXPX$ - *.s.4 , F g.j.5./.kX.X[.'.[.|.hXjXxXzXxXjX.X{.].].[.hXkX~.r.Z.6.] 2  .s.} $ PXPXPXPXPXPXPXPXPXPX",
"PXPXPXPXPXPXPXPXPXPX# r w.] = i < ~ 2.W L ~.kXgX[.[.[.[.[.[.{.[.].].].`.[.xXfXh.Y 8.F N 1 i : .. .$ + PXPXPXPXPXPXPXPXPX",
"PXPXPXPXPXPXPXPXPXPXo a ..- = i i N N M K L h.fXxX[.E.E.[.`.].]._.E.Q.|.xX/.r.L K B m m i i = 2 ..$ + PXPXPXPXPXPXPXPXPX",
"PXPXPXPXPXPXPXPXPXPX+ p ~ @ = ; , N m M M  .E 5.fXxX|.M.K.'.`._.b.N.dXxX~.q.E } M M ~ 3 ; e = $ { - O PXPXPXPXPXPXPXPXPX",
"PXPXPXPXPXPXPXPXPXPXO ] 2 + @ . . @ ; N ~ M } L q./.zX}.i.T._.b.e.dXkX~.....[ M ~ 3 ; @ o + $ + ] ; + PXPXPXPXPXPXPXPXPX",
"PXPXPXPXPXPXPXPXPXPX# [ 3 X     X X   * 1 N M D ..*.).cX~.E Y.E /.kXh...H M M M 2 $ X X       . { i O PXPXPXPXPXPXPXPXPX",
"PXPXPXPXPXPXPXPXPXPX# [ } @ . - w f % X . < N M B J Y ~./.x 9.x fXh...D B ~ N - o X 8 f + - + : *.2 # PXPXPXPXPXPXPXPXPX",
"PXPXPXPXPXPXPXPXPXPX#  .=.A n : v ;X,Xl . . - 2 m M B H G 5 3.> } J B M m 2 @   % v >X:Xh 1 C A e.p & PXPXPXPXPXPXPXPXPX",
"PXPXPXPXPXPXPXPXPXPX$  .a.>.} s nXJXSXiXz 7     ; N M M 2 > R > p B ~ 3 - o X 6 @XNXDXSXiX; *.i.i.p + PXPXPXPXPXPXPXPXPX",
"PXPXPXPXPXPXPXhXgXx $ ..s.z.F b BXGXHXeX3Xz       - , N : > R - i 3 2 +   & 6 z 3XZXHXFXnXd Q z.a.] # PXhXhXPXPXPXPXPXPX",
"PXPXPXPXPX'.'.'.dXoX$ ..s.D.G &XJXHXHXwX8X3Xb   X   . * $ ; Y - - @ .     9 b 4X7XAXHXGXnXc Q K.M.{ -  X|.`.'.'.PXPXPXPX",
"PXPXPXPXK.F.l.c.L.9.$ q.b.H.G &XCXHXLXwX8X3Xd     6 6 o @ _ &.1 .   6 6   & c qX8XAXHXGXMXc 5.T.z.{ $ Z.F.l.l.P.L.PXPXPX",
"PXPXPXPXm.Y Z Z w.2.= w.G.L.K #XCXFXHXeX9X4Xz 7 q OXOX% J h.j.r.4 q OXz 6 & z 8X8XVXHXGXmXh q.R.K. .- r.Y S S W K.PXPXPX",
"PXPXPXn.d.I Z Z Z 3 r t.L.E.W h mXSXHXKX0X9X7X4X2X+X$X7.dXcXcXcX(.7.+X+X2XqX7X9XwXLXLXCX6Xf M.Q.P...$ } C Z S I x.PXPXPX",
"PXPXPXx.p.U I S C ^ { a.L.(.M.3 rXMXDXHXVX0X8X8X0X5X;XL.dXcXcXcX|.L.;X5X7X7X0XwXKXLXJXmX#XJ ^.W.P.w.] ^ C I U U d.PXPXPX",
"PXPXPXd.>.U U S n } =.s.H.[.^.&.f 6XMXJXLXFXVXZXCXnXf.K.W.'.'.}.W.F.C.nXCXAXKXGXGXMXMX%Xp =. XW.P.i.;.^ n I U T p.PXPXPX",
"PXPXPXPXp.T T n 1 ' =.f.T.'.gXu.' y %XmXMXMXBXnX>Xl ,.d.K.T.R.L.n.d.:.*XNXMXMXMXmXbX$Xg Y V.gXQ.K.e.;.V 1 Z T T p.PXPXPX",
"PXPXPXPX1.>.T A 1 X.;.M.L.Q.jXfXw.` a s c #X#Xh 3.{ o.,.,.p.p.>.>.,.) { x c #X#Xc f / ' u.gX.XR.P.y.;.V 1 A T >.B.PXPXPX",
"PXPXPXPXPX<.,.I A o.;.M.T.T.|.lXdXh.<.` ` _ ) j.Q.q.a %.<.,.,.:.<.#.a c.(.6.^ _ ` ` o.V.kXjX'.R.P.t.;.' A ,.=.1.PXPXPXPX",
"PXPXPXPXPXPX<X<.:.<.;.M.L.T.R..XjX}.I.u.B.~. X'.Q.t.V e +.#.#.@.g i ' N._.'./.V.B.u.^.hXjX[.T.T.K.y.-.<.:.<.<XPXPXPXPXPX",
"PXPXPXPXPXPXPX1X<X%.-.M.H.T.T.R.[.hXgXgXgX.X_.Y.fXvX:X/ i e e i i +.:XvX(.E.[..XgXgXhX.X'.R.T.H.K.w.<.B.1XPXPXPXPXPXPXPX",
"PXPXPXPXPXPXPXPXPX+.-.M.L.H.T.T.R.Q.W.'.W.Q.Y.5.DXFX-Xf ; < < < ; h iXFXsXE E.Q._.'.W.Q.U.U.H.H.K.y.%.PXPXPXPXPXPXPXPXPX",
"PXPXPXPXPXPXPXPXPX/ <.u.F.G.H.H.T.R.R.R.Q.T.Y S b b 7.g.e.q.t.r.Q Z.7.b 0.I r.!.R.T.R.T.T.T.G.D.N.y.<./ PXPXPXPXPXPXPXPX",
"PXPXPXPXPXPXPXPXPXg <.w.n.S.D.G.H.H.U.U.T.r.Z 4 9.Y.R._.].XXXXXX].Q.Q.Y.3.3 Z c.R.U.R.T.H.G.D.S.v.-.%.a PXPXPXPXPXPXPXPX",
"PXPXPXPXPXPXPXPXPXa %.*.k.S.S.D.G.H.H.U.A.M 5 Z.Q.!._._._._._._.]._.Q.R.W.9.5 F P.T.H.H.G.D.S.S.y.-.%.u PXPXPXPXPXPXPXPX",
"PXPXPXPXPXPXPXPXPXu %.o.w.l.b.S.S.D.G.D.E 4 A.U.U.U.Q.R.R.A.c.P.Q.Q.R.T.T.T.g.5 r.G.G.D.S.n.m.k.;.o.$.u PXPXPXPXPXPXPXPX",
"PXPXPXPXPXPXPXPXPXu -X' | e.l.v.n.n.S.l.4 j.G.G.J.H.H.T.J.c.c.c.H.U.T.H.J.G.H.8.F b.S.S.n.m.k.w.o.%.*X* PXPXPXPXPXPXPXPX",
"PXPXPXPXPXPXPXPXPX% &X%.X.O.w.s.z.m.m.E E n.n.S.D.S.G.G.G.G.H.G.G.G.G.D.D.S.b.v.6.t.m.x.k.t.w.| X.$.v PXPXPXPXPXPXPXPXPX",
"PXPXPXPXPXPXPXPXPXPXj ,X) X.O.=.w.a.s.q.l.z.z.z.v.v.v.m.v.n.v.b.n.v.v.v.z.v.z.z.k.Q s.e.w.=.} X.+.-X0 PXPXPXPXPXPXPXPXPX",
"PXPXPXPXPXPXPXPXPXPX9 %X$.) ` o.*.=.=.w.a.a.f.s.k.k.s.k.k.k.k.k.k.k.k.s.k.k.f.a.a.w.=.=.*.} ` ( -X#X7 PXPXPXPXPXPXPXPXPX",
"PXPXPXPXPXPXPXPXPXPXPXj >X$.) ) ` | *.*.w.w.e.e.e.t.a.a.a.s.s.a.a.a.a.t.e.e.e.w.w.*.O.} ) ) ` *X%Xq PXPXPXPXPXPXPXPXPXPX",
"PXPXPXPXPXPXPXPXPXPXPX& c %X*X` / ) ^ } O.*.=.;.w.w.w.w.w.=.=.=.w.w.w.w.w.w.=.*.o.` _ _ ) +.-X%X0 PXPXPXPXPXPXPXPXPXPXPX",
"PXPXPXPXPXPXPXPXPXPXPXPX7 0 %X>X$.+./ / ) X.X.X.o.o.| O.*.| | O.| | | o.o.X.` ) / / / +.=X>X$Xq PXPXPXPXPXPXPXPXPXPXPXPX",
"PXPXPXPXPXPXPXPXPXPXPXPXPXPX7 #X&X%X-X$.#.#.+.+.+.( ( ) ( ( +.+.( ( +.+.( +.+.#.#.*X-X%X$Xj % PXPXPXPXPXPXPXPXPXPXPXPXPX",
"PXPXPXPXPXPXPXPXPXPXPXPXPXPX8 8 8 0 0 j l k k k k k k k k k k @.@.@.k k k k k k l j 0 q 8 8 9 PXPXPXPXPXPXPXPXPXPXPXPXPX",
"PXPXPXPXaXaXpX,X,X=X=X=X*Xl l l s s t t t y t t t t t t t t y y u y y y y y y y y y s s h l l *X@.=X=X-X,X:XaXsXPXPXPXPX",
"PXPXPXPXPXPXPXPXPXPXPXPXPXPXPXPXyX;XpXpXpXtX;X;XtXtXtXtXtXtXpXyX;X;X;X;X;X;X;X;XpXyX;XpXpXPXPXPXPXPXPXPXPXPXPXPXPXPXPXPX",
"PXPXPXPXPXPXPXPXPXPXPXPXPXPXPXPXPXPXPXPXPXPXPXPXPXPXPXPXPXPXPXPXPXPXPXPXPXPXPXPXPXPXPXPXPXPXPXPXPXPXPXPXPXPXPXPXPXPXPXPX",
"PXPXPXPXPXPXPXPXPXPXPXPXPXPXPXPXPXPXPXPXPXPXPXPXPXPXPXPXPXPXPXPXPXPXPXPXPXPXPXPXPXPXPXPXPXPXPXPXPXPXPXPXPXPXPXPXPXPXPXPX",
"PXPXPXPXPXPXPXPXPXPXPXPXPXPXPXPXPXPXPXPXPXPXPXPXPXPXPXPXPXPXPXPXPXPXPXPXPXPXPXPXPXPXPXPXPXPXPXPXPXPXPXPXPXPXPXPXPXPXPXPX",
"PXPXPXPXPXPXPXPXPXPXPXPXPXPXPXPXPXPXPXPXPXPXPXPXPXPXPXPXPXPXPXPXPXPXPXPXPXPXPXPXPXPXPXPXPXPXPXPXPXPXPXPXPXPXPXPXPXPXPXPX"
};
