/* XPM */
static char *obih_removebg_preview__3___3___11703941029[] = {
/* columns rows colors chars-per-pixel */
"60 60 250 2 ",
"   c None",
".  c black",
"X  c #010101",
"o  c #020102",
"O  c #010202",
"+  c #020202",
"@  c #030202",
"#  c #030203",
"$  c gray1",
"%  c #040303",
"&  c #040304",
"*  c #030404",
"=  c #040404",
"-  c #050404",
";  c #040405",
":  c #050405",
">  c gray2",
",  c #060606",
"<  c #070707",
"1  c #080708",
"2  c gray3",
"3  c #090909",
"4  c #0A0909",
"5  c gray4",
"6  c #0B0B0B",
"7  c #0C0C0C",
"8  c gray5",
"9  c #0E0E0E",
"0  c gray6",
"q  c #101010",
"w  c #111011",
"e  c #111111",
"r  c gray7",
"t  c #131313",
"y  c gray8",
"u  c #151515",
"i  c #161616",
"p  c gray9",
"a  c #181818",
"s  c #191919",
"d  c gray10",
"f  c #1B1B1B",
"g  c #1B1B1C",
"h  c gray11",
"j  c #1D1D1D",
"k  c #1E1E1E",
"l  c gray12",
"z  c #202020",
"x  c gray13",
"c  c #222222",
"v  c #232323",
"b  c gray14",
"n  c #252525",
"m  c gray15",
"M  c #272727",
"N  c gray16",
"B  c gray17",
"V  c #2C2C2C",
"C  c #2D2D2D",
"Z  c gray18",
"A  c #2F2F2F",
"S  c gray19",
"D  c #313131",
"F  c #323232",
"G  c gray20",
"H  c #343434",
"J  c #353535",
"K  c gray21",
"L  c gray22",
"P  c #393939",
"I  c #3A3A3A",
"U  c gray23",
"Y  c #3C3C3C",
"T  c gray24",
"R  c #3E3E3E",
"E  c #3F3F3F",
"W  c gray25",
"Q  c #414141",
"!  c gray26",
"~  c #434343",
"^  c #444444",
"/  c gray27",
"(  c #464646",
")  c gray28",
"_  c #484848",
"`  c #494949",
"'  c #4B4B4B",
"]  c #4C4C4C",
"[  c gray30",
"{  c #4E4E4E",
"}  c gray31",
"|  c #505050",
" . c #515151",
".. c gray32",
"X. c #535353",
"o. c gray33",
"O. c #555555",
"+. c #565656",
"@. c gray34",
"#. c #585858",
"$. c gray35",
"%. c #5A5A5A",
"&. c #5B5B5B",
"*. c gray36",
"=. c #5D5D5D",
"-. c #5F5F5F",
";. c #606060",
":. c gray38",
">. c #626262",
",. c gray39",
"<. c #646464",
"1. c #656565",
"2. c #676767",
"3. c #686868",
"4. c DimGray",
"5. c #6A6A6A",
"6. c gray42",
"7. c #6C6C6C",
"8. c #6D6D6D",
"9. c gray43",
"0. c #6F6F6F",
"q. c gray44",
"w. c #717171",
"e. c #727272",
"r. c gray45",
"t. c #747474",
"y. c gray46",
"u. c #767676",
"i. c #777777",
"p. c gray47",
"a. c #797979",
"s. c gray48",
"d. c #7B7B7B",
"f. c #7C7C7C",
"g. c gray49",
"h. c #7E7E7E",
"j. c gray50",
"k. c #808080",
"l. c #818181",
"z. c gray51",
"x. c #838383",
"c. c gray52",
"v. c #868686",
"b. c gray53",
"n. c #888888",
"m. c gray54",
"M. c #8B8B8B",
"N. c gray55",
"B. c #8D8D8D",
"V. c #8E8E8E",
"C. c gray56",
"Z. c #909090",
"A. c gray57",
"S. c #939393",
"D. c gray58",
"F. c gray59",
"G. c #979797",
"H. c #989898",
"J. c gray60",
"K. c #9A9A9A",
"L. c #9B9B9B",
"P. c gray61",
"I. c #9D9D9D",
"U. c gray62",
"Y. c #9F9F9F",
"T. c #A0A0A0",
"R. c gray63",
"E. c #A2A2A2",
"W. c #A5A5A5",
"Q. c gray65",
"!. c #A7A7A7",
"~. c #A9A9A9",
"^. c #AAAAAA",
"/. c gray67",
"(. c #ACACAC",
"). c gray68",
"_. c #AEAEAE",
"`. c #AFAFAF",
"'. c gray69",
"]. c #B1B1B1",
"[. c #B2B2B2",
"{. c gray70",
"}. c #B4B4B4",
"|. c gray71",
" X c #B6B6B6",
".X c gray72",
"XX c #B9B9B9",
"oX c gray73",
"OX c #BBBBBB",
"+X c #BCBCBC",
"@X c gray74",
"#X c gray",
"$X c gray75",
"%X c #C0C0C0",
"&X c #C1C1C1",
"*X c gray76",
"=X c #C3C3C3",
"-X c gray77",
";X c #C5C5C5",
":X c #C6C6C6",
">X c gray78",
",X c #C8C8C8",
"<X c gray79",
"1X c #CACACA",
"2X c #CBCBCB",
"3X c gray80",
"4X c #CDCDCD",
"5X c #CECECE",
"6X c gray81",
"7X c #D0D0D0",
"8X c gray82",
"9X c #D2D2D2",
"0X c LightGray",
"qX c gray83",
"wX c #D5D5D5",
"eX c gray84",
"rX c #D7D7D7",
"tX c #D8D8D8",
"yX c gray85",
"uX c #DADADA",
"iX c gray86",
"pX c gainsboro",
"aX c #DDDDDD",
"sX c gray87",
"dX c #DFDFDF",
"fX c gray88",
"gX c #E1E1E1",
"hX c #E2E2E2",
"jX c gray89",
"kX c #E4E4E4",
"lX c gray90",
"zX c #E6E6E6",
"xX c #E7E7E7",
"cX c gray91",
"vX c #E9E9E9",
"bX c #EAEAEA",
"nX c gray92",
"mX c #EFEFEF",
"MX c gray94",
"NX c #F1F1F1",
"BX c #F3F3F3",
"VX c #F4F4F4",
"CX c gray97",
"ZX c #F8F8F8",
"AX c #F9F9F9",
"SX c #FBFBFB",
"DX c gray99",
"FX c #FDFDFD",
"GX c #FEFEFE",
"HX c white",
/* pixels */
"                                                              = = = = = =                                               ",
"                                                      $ $ $ $ * = = = = = =                                             ",
"                                                $ $ $ $ $ $ $ $ $ $ $ $ = = = = $ $                                     ",
"                                              $ $ $ $ $ $ $ $ $ $ $ $ $ = = = = $ $ $                                   ",
"                                          & $ $ $ $ $ $ $ $ $ $ $ $ $ = = = = = $ $ $ $                                 ",
"                                        = $ $ $ $ $ $ $ $ $ $ $ $ $ $ = 2 2 = = & $ $ $ $ $                             ",
"                                      = $ $ $ $ $ $ $ $ $ $ $ $ $ = 2 8 2 2 = 2 = = $ $ $ $ $                           ",
"                                    = $ $ $ $ $ $ $ = 2 t z b G X.;.u.u.$.[ J a 2 = $ $ $ $ $                           ",
"                                    = $ $ $ = t z Q 5.l.U.|..X%X3X3X0X2X$X.XW.g.[ z 8 = $ $ $                           ",
"                                    = $ $ y J 2.N.].2XrXsXgXgXtXrXrXrXrXrX0X3X|.Z.2._ Z = $ $                           ",
"                                  1 = 2 z / 5.N.].3XtXsXgXzXgXsXsXtXsXgXgXgXtX:XR.u.;._ y $ $ %                         ",
"                                  % = z _ o.p.U.%XrXsXsXzXzXzXgXgXgXgXzXzXgXsX3XW.l.0._ y $ & =                         ",
"                                  = = S o.2.l.R.$XrXsXsXzXzXcXzXzXgXzXzXzXgXrX%XW.F.u./ t $ $ 2                         ",
"                                  = 2 J $.0.l.J.|.2XrXsXgXzXzXzXgXgXgXzXgXgX0X$X).U.q./ t = $ 2                         ",
"                                  2 2 J $.0.l.F.].:X0XtXgXgXgXgXgXgXgXzXzXsX0X%X].J.u.Q t = = $                         ",
"                                  2 2 G *.u.v.J..X3XtXtXsXsXgXgXgXgXgXzXzXsXrX:X].J.0./ p t =                           ",
"                                  t 8 G &.u.n.J.|.2X0X3X0XtXtXpXtX0X$X~.J.Z.N.l.u.u.2._ Z y 2                           ",
"                                  y y J [ o.[ | o.o.$.5.n.|..X|.~.q.Q a 8 t 8 8 8 h Q _ J y p                           ",
"                                  h a J J t 2 2 = = = 8 b ;.l.l.q.G 8 2 8 a b b b a z / S 8 h                           ",
"                                    p Z a 2 t p y 2 2 2 7 B u.P.p.J y 8 8 y b B B G R _ G [                             ",
"                                    t B h y t y t 2 t 8 t G U.tX).5.R b G t h a h / 5.*.L .X                            ",
"                                      ) J h 8 8 8 t ^ _ &.5.].tX$XU.J.q.*._ *.0.N.R.F.2.b [                             ",
"                                      r.o.0.o./ [ ;.M.|.`.F.|.tX%X~.:X3X%X$X%X3X2X|.N.[ y                               ",
"                                      G *.N.R.).%X3X0X7X(.N.].tX$XU.|.0XrXrXtX0X$XJ.;.Z                                 ",
"                                        / p.U.].2X0X0X,XG.g.].tX%XZ.R.2X0XrXrX$XF.5.J y                                 ",
"                                        Z X.g.J.Y.$X2X|.p.u.(.,X).g.v.].:X).~.J.5.R z                                   ",
"                                          L $.g.;.l.).R.5.G / X.[ [ l.].~._ p.v.o.J                                     ",
"                                          J / 2.$.L l.Z.v.&.b 0 J q.N.J.p.Z g.q.o.                                      ",
"                                            E _ X.z L / J b h b y h b Z b / 5.N.                                        ",
"                                              J L R z y z J ) [ [ [ _ / L o.F.                                          ",
"                                                / J R ) o./ / / _ $.0.q.;.q.                                            ",
"                                                  | ^ o.2.q.v.n.U.J.Z.n.q.                                              ",
"                                                    X.R [ o.;.X.[ / L G                                                 ",
"                                                      Z $ $ $ $ $ $ $ =                                                 ",
"                                        %X            n.G 2 $ $ $ $ t o.                                                ",
"                                        3X              J.$.b t 2 8 *.3X                                                ",
"                                    sXtXHX              zXsX0X%X.X.XzXHX                                                ",
"                              VXrX2X:XcXHXHX            HXHXHX%XR.MX0XSX                                                ",
"                            tX%X0XzXSXHXVXSX            HXHXHXN.$.|.X.cXHX                                              ",
"                          sX%X:XHXHXSXMX$X2X        HXHXHXHXHXzX0XMXtXHXHXHXHXHX                                        ",
"                            _ J.SXVXgX]..X%X    HXHXHXHX  HXHXJ.[ VXHXHXHX  HXHXHXHXHX                                  ",
"                            Q )..X:XcX3X2X%XzXHXHXHX      HXHX:XF.VXHXHX          HXHX                                  ",
"                              3X0X      zX].0XHX          HXHXHXHXHXHXHX                                                ",
"                                          sXcX          HXHXHXHXHXHXHXHXHX                                              ",
"                                          HXHX          HXHX          HXHX                                              ",
"                                                      HXHX            HXHX                                              ",
"                                                      HXHX              HXHX                                            ",
"                                                      HXHX              HXHX                                            ",
"                                                      HXHX              HXHX                                            ",
"                                                    gXsXHX              HXHX                                            ",
"                                                VXsXsXSXHX              zXMX                                            ",
"                                              HX3X|.gXHXHX          cX$XtXSX                                            ",
"                                              HXcXnXHXHXHX          SX%XcXHX                                            ",
"                                                HXHXHXHX            HXHXHXHX                                            ",
"                                                  HX                HXHX  HX                                            ",
"                                                                                                                        ",
"                                                                                                                        ",
"                                                                                                                        ",
"                                                                                                                        ",
"                                                                                                                        "
};
