/* XPM */
static char *obih_removebg_preview__1_1703939030[] = {
/* columns rows colors chars-per-pixel */
"60 60 44 1 ",
"  c None",
". c #030303",
"X c #080707",
"o c #0B0B0B",
"O c #100F10",
"+ c #131313",
"@ c #181717",
"# c #1B1B1B",
"$ c #232323",
"% c #282727",
"& c #2B2B2B",
"* c #302E2F",
"= c #302F30",
"- c #333333",
"; c #383738",
": c #3B3B3B",
"> c #403E3F",
", c #434343",
"< c #484748",
"1 c #4C4C4C",
"2 c #545454",
"3 c #575658",
"4 c #5B5B5B",
"5 c #625F60",
"6 c #646464",
"7 c #6B6B6B",
"8 c #747474",
"9 c #7B7B7B",
"0 c #838383",
"q c #8C8B8B",
"w c #949494",
"e c #9B9B9B",
"r c #A19FA0",
"t c #A3A3A3",
"y c #ACACAC",
"u c #B3B3B3",
"i c #BCBCBC",
"p c #C1BFC0",
"a c #C4C4C4",
"s c #CCCCCC",
"d c #D4D4D4",
"f c #DBDBDB",
"g c #E3E3E3",
"h c #EAEAEA",
/* pixels */
"                            XX.X.XX.                        ",
"                          ......X..X.X                      ",
"                    .................X.                     ",
"                 ..........................X                ",
"                ....................X.X......               ",
"              ...........................X.....             ",
"            ....................................            ",
"           ........................X.XX..........           ",
"          .........................XX..X...........         ",
"         o.......................XXXXXX.X.X.........        ",
"        .....................X.X.XXoXXXX.X..........        ",
"       ....................Xo@#$=,:%##@OXX...........       ",
"       .............oo+%;>>270weyutw0971=#OX..X......       ",
"      o.......Xoo@&178qyippasddddssaaiit06,$ooX......       ",
"      o......+%<49euasdffffdfddddsdsssspye05,&#O.....       ",
"      X....o$:69wyisddfgfgfffdddddfdfddspyw963<-o.....      ",
"     o..XX#-169qyisdfffggggfffffffggfffdsue0663,#.....      ",
"     X..X$:<47qeuadfffgghggggffgggggghgfdat9874<#.....      ",
"     XX.@,<168qtisdffggggggggfgggghggggfdatq984,#X....      ",
"     .X.$,2460wyasfggfgghghgggggggghhgfdsutwq94:@X...X      ",
"     XXX%13680wtiadfffghhghhgggggghgggddauttw94,@X...X      ",
"     X.X&<4789qtuaddfffghhgggggfggggggddauyyw84,@X...o      ",
"     X.o&14789qeyissddfggggggggfgghgggfdaiutw94:+XX...      ",
"     XXo&13780qwyiaddfggggggfgggggggggddaiytw94:+ooX..      ",
"     oXo%14790qeuasddfffgfggggggggggggddaiutq84:+Ooo..      ",
"     oXo$1689qwtuadfffffgffgffffgggggfddsiutq63,$@+o..     X",
"     +oo%1489qwtuasddsdddfdffdddaayteewq00890621;$+oXo    @X",
"<    @o+=,268880qwwettyiassssauw84%####+@@+#>41<,$+o+     ;O",
"2@   #o@-,11-%%&%$#$&=,8tyyrye8,$OXXXXXXXXXXo&<,:%+o-    ,@ ",
"-+   %+#-:;#XXXX.X..Xo+&5000092$OoXooO@##$$$+#:,:$oO-   ,+o ",
"3+#   +@--#XXXXXXXXXXXo+%18996:#Oooo+$:<,:-=%%:,:#oo  o@X.o ",
" &$q  @@&&+X++##@OXXXXoo#,9rtq3=@O+ooO+###$&:>12;@X.X....X  ",
" *@1   +&&++@@@$#+oXXooo#2tddu92-#+&#oXO+oo$:464:OXXX.....  ",
"  &@,  +&-#@OoooXXX#$o+$&6uffiq99:&4,@$<-#:28094;O%oo....   ",
"   -o# o&>&$OooOOoo14:2669iffarttq82,,1348eyyt04&@#.+X.+>   ",
"    ..oo@<22,=@#$$&,7eutwwiddayypsputetyisaiue92@o.XX..>    ",
"     .+$o=70q96678qtisauwwiffsytidfdddddfdsiyq7-ooXX.X+     ",
"     XXoO:60wttuassdddatqwufdateusddddffddayw72#oX..o;      ",
"      +@+=49wtuisdddddiw9quddiewtasddffddiyw81=OX.X.%       ",
"      @o.#<60etuassddsuq8quddst0qussdddsayw81-#XXoX&        ",
"       O.O-170wtuaassar88wiffstqqeiassaiyw72-$+ooX$6        ",
"       #$O%:28qw09iaiyq459eytw737eyuiw4te84<=@$&$$,         ",
"        %o#=,3708,wutrw1@$><<:;>6yuyy;&eq72:$+:433          ",
"         ,+$:1478$3wwww01-$+#:79wtyy0+2w071-#&:2            ",
"          ,$%,258-@700q093%oo$390qqw1O7082,&@               ",
"          5,$&,24,o%64<:&++$@oO+#&&$+,7621;$                ",
"            @#=:,,=@+oXXo@%:-$$@+O+o=221,>&                 ",
"             +#&-:,-@+$=,2423676466,><,,>&#                 ",
"              @$&&;>><44224441136774211,-&@                 ",
"               #$&;:,<23,-%%&,268888741::;                  ",
"                $&:,124570wetuyttew942123,                  ",
"                &&=-,4880wteeeeq986:,47872                  ",
"                 ,:-%$=-&&-#@@+oooX%49q0957                 ",
"                 21,-+............#80wew077qsiw5            ",
"                 6542,@...........4wweteqqqwfhg             ",
"              ha888861:&o.......X=qettyyetyfhh              ",
"                00098887,#X..X..O9ettyyyyufh                ",
"                  q0q00997<&+oo@2qtttyiiid                  ",
"                     qqqq0986129etyyuia                     ",
"                         099990wryu                         "
};
