/* XPM */
static char *obih_removebg_preview__3___1_1703940088[] = {
/* columns rows colors chars-per-pixel */
"60 60 36 1 ",
"  c None",
". c #030303",
"X c #0B0B0B",
"o c #141414",
"O c #181717",
"+ c #1C1C1C",
"@ c #232323",
"# c #2C2C2C",
"$ c #343434",
"% c #3B3B3B",
"& c #403F3F",
"* c #444444",
"= c #4B4B4B",
"- c #545454",
"; c #5C5C5C",
": c #636363",
"> c #6C6C6C",
", c #747474",
"< c #7B7B7B",
"1 c #838383",
"2 c #8B8B8B",
"3 c #949494",
"4 c #9C9C9C",
"5 c #A5A5A5",
"6 c #ABABAB",
"7 c #B4B4B4",
"8 c #BBBBBB",
"9 c #C4C4C4",
"0 c #CBCBCB",
"q c #D0CFCF",
"w c #D4D4D4",
"e c #DBDBDB",
"r c #E3E3E3",
"t c #ECECEC",
"y c #F4F4F4",
"u c #FFFFFF",
/* pixels */
"                             ...X...                        ",
"                         ............                       ",
"                      ..............X....                   ",
"                    ......................                  ",
"                  ..........................                ",
"                 ....................X.......               ",
"                ...................XX.........              ",
"               ...................X.X..........             ",
"              ............XXXo#$*-=$#@oX.......             ",
"              .......Xo#%=,12478998652:%@.......            ",
"             o....X@*;2690eeeeewwww00972:$@o....            ",
"             X...O%:158wwerreeewweeeww962>-$o...            ",
"             ..X#*:<480eerrrreererrrrew82,:=+...            ",
"             ..@*=>269eerrrrrrrrrrrrrew73<>=+...            ",
"             .X#-;,269weerrtrrrerrtrrw0743>*O...X           ",
"             .X$-><258wwertrtrrrrrrrrw9753>=o...o           ",
"            X.X$-><2479wwrrrrrrrrrrrrw9863>=oX..            ",
"            o.X$-><1480weeerrrrerrrrrw9853>*oXX.            ",
"            oXX$;,1358wwweererreerrrew9852:=@OX.            ",
"             XX$-><2479000qwwww085<,,>:;;>;=$+XX            ",
"             oo%=-=*====;>478761=@XXX..XX+*=$+X#            ",
"             O+$$+X.....Xo*<11<*OXXXo@@@@O@&$OX             ",
"             OO$@XXooXX.XXo%<2,%+XXo+#$$##$=$@*7t           ",
"              o#+ooO+OXX.Xo*406:$OO+XXoX+&;;$1yuy3          ",
"              @##OXXXXX#++#;8r921=&=+$%$;<1:#,06-@          ",
"         uy7tuw;&$@oOo+=>1118e95763,><26773:@oooo4          ",
"         uut<9y,-<<;;:<489538e067wwwqwww961=o...2           ",
"          uu8+-#-14689www9328e9450wwwew062;@X..=t           ",
"           uu=Xo&>3680wwq7118e94280www962:$o.X$w            ",
"            u0#.@=,3579q94,28w9414809872;$+X.#0             ",
"            uu9*O$;,2>4872==<2>-;477:,4>=@O%;9              ",
"             uuw2**;,=;443;#@@$;<563#,2;*#,0y               ",
"              uuu7*=:-@>11,=OX+=><1-#,>,68y                 ",
"                uu6*==@@$++o@$OooooO=;2tu                   ",
"                 uu4$$*@o+#*==-;--=%-5y                     ",
"                  uu8*$%*--==**=;>:;2u                      ",
"                   uu5$*=-;:>>11232>w                       ",
"                    uu4*=>>23233<>=>y                       ",
"                     uu6#O+o+XX.X.+6                        ",
"                      uu3o........,t                        ",
"                6      ut,#......$9u                        ",
"                9       ue<=@X..+5uuu                       ",
"              teuu      uuew97559yuuu                       ",
"           ur07euu       uuuur9uuuuu                        ",
"         ut89wyuuu       uuuu1+euuuu                        ",
"         85ruuuuee       uuuu92yuuuuu                       ",
"        r97yuutr78r    uuuuuur7uuuuuuuuu                    ",
"         @:wute5790  uuuu  uu3owuuu  uuuuuu                 ",
"         #6689y0w99uuuu    uu02tuuu     uuu                 ",
"          e8t   t87uu      uuuuuuuu                         ",
"                 e9       uuuuuuuuu                         ",
"                 uuu     uuu     uuu                        ",
"                 uu      uu       uu                        ",
"                        uuu       uuu                       ",
"                       yuuu       uuu                       ",
"                     t69uu        uuu                       ",
"                     uttuu       uuuuu                      ",
"                                 uu                         ",
"                                                            ",
"                                                            "
};
